<?xml version='1.0' encoding='utf-8'?>
<mlt LC_NUMERIC="C" producer="main_bin" version="7.0.0" root="/home/martin/Dev/homography_imitation_learning/notebooks/out/homography_annotation">
 <profile frame_rate_num="25" sample_aspect_num="1" display_aspect_den="9" colorspace="709" progressive="1" description="HD 1080p 25 fps" display_aspect_num="16" frame_rate_den="1" width="1920" height="1080" sample_aspect_den="1"/>
 <producer id="producer0" in="00:00:00.000" out="00:00:29.360">
  <property name="length">735</property>
  <property name="eof">pause</property>
  <property name="resource">img/re_sample_frame_rate_5.mp4</property>
  <property name="audio_index">-1</property>
  <property name="video_index">0</property>
  <property name="mute_on_pause">0</property>
  <property name="mlt_service">avformat-novalidate</property>
  <property name="meta.media.nb_streams">1</property>
  <property name="meta.media.0.stream.type">video</property>
  <property name="meta.media.0.stream.frame_rate">25</property>
  <property name="meta.media.0.stream.sample_aspect_ratio">1</property>
  <property name="meta.media.0.codec.width">960</property>
  <property name="meta.media.0.codec.height">240</property>
  <property name="meta.media.0.codec.rotate">0</property>
  <property name="meta.media.0.codec.frame_rate">25</property>
  <property name="meta.media.0.codec.pix_fmt">yuv420p</property>
  <property name="meta.media.0.codec.sample_aspect_ratio">1</property>
  <property name="meta.media.0.codec.colorspace">601</property>
  <property name="meta.media.0.codec.name">h264</property>
  <property name="meta.media.0.codec.long_name">H.264 / AVC / MPEG-4 AVC / MPEG-4 part 10</property>
  <property name="meta.media.0.codec.bit_rate">642592</property>
  <property name="meta.attr.0.stream.handler_name.markup">VideoHandler</property>
  <property name="meta.attr.major_brand.markup">isom</property>
  <property name="meta.attr.minor_version.markup">512</property>
  <property name="meta.attr.compatible_brands.markup">isomiso2avc1mp41</property>
  <property name="meta.attr.encoder.markup">Lavf58.29.100</property>
  <property name="seekable">1</property>
  <property name="meta.media.sample_aspect_num">1</property>
  <property name="meta.media.sample_aspect_den">1</property>
  <property name="aspect_ratio">1</property>
  <property name="kdenlive:clipname"/>
  <property name="kdenlive:folderid">-1</property>
  <property name="meta.media.frame_rate_num">25</property>
  <property name="meta.media.frame_rate_den">1</property>
  <property name="meta.media.colorspace">601</property>
  <property name="meta.media.color_trc">2</property>
  <property name="meta.media.has_b_frames">2</property>
  <property name="meta.media.width">960</property>
  <property name="meta.media.height">240</property>
  <property name="meta.media.color_range">mpeg</property>
  <property name="meta.media.top_field_first">0</property>
  <property name="meta.media.progressive">1</property>
  <property name="kdenlive:id">2</property>
  <property name="kdenlive:file_size">2371236</property>
  <property name="kdenlive:file_hash">37c6edc7351273a7d4e81a2ec1cdd046</property>
 </producer>
 <producer id="producer5" in="00:00:00.000" out="00:00:29.360">
  <property name="length">735</property>
  <property name="eof">pause</property>
  <property name="resource">plot/re_sample_frame_rate_5.mp4</property>
  <property name="audio_index">-1</property>
  <property name="video_index">0</property>
  <property name="mute_on_pause">0</property>
  <property name="mlt_service">avformat-novalidate</property>
  <property name="seekable">1</property>
  <property name="aspect_ratio">1</property>
  <property name="kdenlive:clipname"/>
  <property name="kdenlive:folderid">-1</property>
  <property name="kdenlive:id">3</property>
  <property name="kdenlive:file_size">1232022</property>
  <property name="kdenlive:file_hash">44b90d3832b68b6833ead50a23fee622</property>
  <property name="meta.media.nb_streams">1</property>
  <property name="meta.media.0.stream.type">video</property>
  <property name="meta.media.0.stream.frame_rate">25</property>
  <property name="meta.media.0.stream.sample_aspect_ratio">1</property>
  <property name="meta.media.0.codec.width">1920</property>
  <property name="meta.media.0.codec.height">1440</property>
  <property name="meta.media.0.codec.rotate">0</property>
  <property name="meta.media.0.codec.frame_rate">25</property>
  <property name="meta.media.0.codec.pix_fmt">yuv420p</property>
  <property name="meta.media.0.codec.sample_aspect_ratio">1</property>
  <property name="meta.media.0.codec.colorspace">709</property>
  <property name="meta.media.0.codec.name">h264</property>
  <property name="meta.media.0.codec.long_name">H.264 / AVC / MPEG-4 AVC / MPEG-4 part 10</property>
  <property name="meta.media.0.codec.bit_rate">332610</property>
  <property name="meta.attr.0.stream.handler_name.markup">VideoHandler</property>
  <property name="meta.attr.major_brand.markup">isom</property>
  <property name="meta.attr.minor_version.markup">512</property>
  <property name="meta.attr.compatible_brands.markup">isomiso2avc1mp41</property>
  <property name="meta.attr.encoder.markup">Lavf58.29.100</property>
  <property name="meta.media.sample_aspect_num">1</property>
  <property name="meta.media.sample_aspect_den">1</property>
  <property name="meta.media.frame_rate_num">25</property>
  <property name="meta.media.frame_rate_den">1</property>
  <property name="meta.media.colorspace">709</property>
  <property name="meta.media.color_trc">2</property>
  <property name="meta.media.has_b_frames">2</property>
  <property name="meta.media.width">1920</property>
  <property name="meta.media.height">1440</property>
  <property name="meta.media.color_range">mpeg</property>
  <property name="meta.media.top_field_first">0</property>
  <property name="meta.media.progressive">1</property>
 </producer>
 <producer id="producer2" in="00:00:00.000" out="00:00:04.960">
  <property name="length">125</property>
  <property name="eof">pause</property>
  <property name="resource"/>
  <property name="progressive">1</property>
  <property name="aspect_ratio">1</property>
  <property name="seekable">1</property>
  <property name="mlt_service">kdenlivetitle</property>
  <property name="kdenlive:duration">125</property>
  <property name="kdenlive:clipname">title</property>
  <property name="xmldata">&lt;kdenlivetitle duration="125" LC_NUMERIC="C" width="1920" height="1080" out="124">
 &lt;item type="QGraphicsTextItem" z-index="2">
  &lt;position x="0" y="1012">
   &lt;transform>1,0,0,0,1,0,0,0,1&lt;/transform>
  &lt;/position>
  &lt;content line-spacing="0" shadow="0;#64000000;3;3;3" font-underline="0" box-height="68" font="Ubuntu" letter-spacing="0" font-pixel-size="30" font-italic="0" typewriter="0;2;1;0;0" alignment="1" font-weight="50" box-width="1197.83" font-color="255,255,255,255">¹School of Biomedical Engineering &amp;amp; Image Sciences, Faculty of Life Sciences &amp;amp; Medicine,
 King's College London, London, United Kingdom&lt;/content>
 &lt;/item>
 &lt;item type="QGraphicsTextItem" z-index="1">
  &lt;position x="336" y="585">
   &lt;transform>1,0,0,0,1,0,0,0,1&lt;/transform>
  &lt;/position>
  &lt;content line-spacing="0" shadow="0;#64000000;3;3;3" font-underline="0" box-height="46" font="Ubuntu" letter-spacing="0" font-pixel-size="40" font-italic="0" typewriter="0;2;1;0;0" alignment="2" font-weight="50" box-width="1325.22" font-color="255,255,255,255">Martin Huber¹, Sébastien Ourselin¹, Christos Bergeles¹, Tom Vercauteren¹&lt;/content>
 &lt;/item>
 &lt;item type="QGraphicsTextItem" z-index="0">
  &lt;position x="181" y="407">
   &lt;transform>1,0,0,0,1,0,0,0,1&lt;/transform>
  &lt;/position>
  &lt;content line-spacing="0" shadow="0;#64000000;3;3;3" font-underline="0" box-height="138" font="Ubuntu" letter-spacing="0" font-pixel-size="60" font-italic="0" typewriter="0;2;1;0;0" alignment="4" font-weight="50" box-width="1558.53" font-color="255,255,255,255">Deep Homography Estimation in Dynamic Surgical Scenes
for Laparoscopic Camera Motion Extraction&lt;/content>
 &lt;/item>
 &lt;startviewport rect="0,0,1920,1080"/>
 &lt;endviewport rect="0,0,1920,1080"/>
 &lt;background color="0,0,0,0"/>
&lt;/kdenlivetitle>
</property>
  <property name="kdenlive:folderid">-1</property>
  <property name="kdenlive:id">4</property>
  <property name="kdenlive:file_hash">948249cf7c5a2b9a2ca3b84a4a66154d</property>
  <property name="force_reload">2</property>
  <property name="meta.media.width">1920</property>
  <property name="meta.media.height">1080</property>
 </producer>
 <producer id="producer3" in="00:00:00.000" out="00:00:09.320">
  <property name="length">234</property>
  <property name="eof">pause</property>
  <property name="resource"/>
  <property name="progressive">1</property>
  <property name="aspect_ratio">1</property>
  <property name="seekable">1</property>
  <property name="mlt_service">kdenlivetitle</property>
  <property name="kdenlive:duration">125</property>
  <property name="kdenlive:clipname">introduction</property>
  <property name="xmldata">&lt;kdenlivetitle duration="125" LC_NUMERIC="C" width="1920" height="1080" out="124">
 &lt;item type="QGraphicsTextItem" z-index="1">
  &lt;position x="290" y="448">
   &lt;transform>1,0,0,0,1,0,0,0,1&lt;/transform>
  &lt;/position>
  &lt;content line-spacing="0" shadow="0;#64000000;3;3;3" font-underline="0" box-height="184" font="Ubuntu" letter-spacing="0" font-pixel-size="40" font-italic="0" typewriter="0;2;1;0;0" alignment="1" font-weight="50" box-width="1418.94" font-color="255,255,255,255">In this work we extract laparoscopic camera motion from video through 
deep homography estimation. 

Our method isolates laparoscopic camera motion from object and tool motion.&lt;/content>
 &lt;/item>
 &lt;item type="QGraphicsTextItem" z-index="0">
  &lt;position x="261" y="335">
   &lt;transform>1,0,0,0,1,0,0,0,1&lt;/transform>
  &lt;/position>
  &lt;content line-spacing="0" shadow="0;#64000000;3;3;3" font-underline="0" box-height="63" font="Ubuntu" letter-spacing="0" font-pixel-size="55" font-italic="0" typewriter="0;2;1;0;0" alignment="2" font-weight="50" box-width="311.641" font-color="255,255,255,255">Introduction&lt;/content>
 &lt;/item>
 &lt;startviewport rect="0,0,1920,1080"/>
 &lt;endviewport rect="0,0,1920,1080"/>
 &lt;background color="0,0,0,0"/>
&lt;/kdenlivetitle>
</property>
  <property name="kdenlive:folderid">-1</property>
  <property name="kdenlive:id">5</property>
  <property name="kdenlive:file_hash">e7adefa11ee4325731821cf500dd2bf7</property>
  <property name="force_reload">2</property>
  <property name="meta.media.width">1920</property>
  <property name="meta.media.height">1080</property>
 </producer>
 <producer id="producer4" in="00:00:00.000" out="00:00:20.160">
  <property name="length">505</property>
  <property name="eof">pause</property>
  <property name="resource">/home/martin/Downloads/pdf2png/cdf/cdf-1.png</property>
  <property name="ttl">25</property>
  <property name="aspect_ratio">1</property>
  <property name="progressive">1</property>
  <property name="seekable">1</property>
  <property name="meta.media.width">1200</property>
  <property name="meta.media.height">800</property>
  <property name="mlt_service">qimage</property>
  <property name="kdenlive:clipname"/>
  <property name="kdenlive:duration">00:00:05.000</property>
  <property name="kdenlive:folderid">-1</property>
  <property name="kdenlive:id">6</property>
  <property name="kdenlive:file_size">48294</property>
  <property name="kdenlive:file_hash">48d09d6d05c783074e4a026ab04091b8</property>
 </producer>
 <producer id="producer1" in="00:00:00.000" out="00:00:06.440">
  <property name="length">162</property>
  <property name="eof">pause</property>
  <property name="resource">/media/martin/Samsung_T5/03_07_21_ae_cai_measurements/img/pipeline_white.png</property>
  <property name="ttl">25</property>
  <property name="aspect_ratio">1</property>
  <property name="progressive">1</property>
  <property name="seekable">1</property>
  <property name="meta.media.width">6859</property>
  <property name="meta.media.height">2932</property>
  <property name="mlt_service">qimage</property>
  <property name="kdenlive:clipname"/>
  <property name="kdenlive:duration">00:00:05.000</property>
  <property name="kdenlive:folderid">-1</property>
  <property name="kdenlive:id">7</property>
  <property name="kdenlive:file_size">7837498</property>
  <property name="kdenlive:file_hash">26b9ae0de301c365b9357738952a5719</property>
 </producer>
 <producer id="producer6" in="00:00:00.000" out="00:00:18.160">
  <property name="length">455</property>
  <property name="eof">pause</property>
  <property name="resource"/>
  <property name="progressive">1</property>
  <property name="aspect_ratio">1</property>
  <property name="seekable">1</property>
  <property name="mlt_service">kdenlivetitle</property>
  <property name="kdenlive:duration">125</property>
  <property name="kdenlive:clipname">base_overlay</property>
  <property name="xmldata">&lt;kdenlivetitle duration="125" LC_NUMERIC="C" width="1920" height="1080" out="124">
 &lt;item type="QGraphicsTextItem" z-index="5">
  &lt;position x="1285" y="412">
   &lt;transform>1,0,0,0,1,0,0,0,1&lt;/transform>
  &lt;/position>
  &lt;content shadow="0;#64000000;3;3;3" font-underline="0" box-height="63" font="Ubuntu" letter-spacing="0" font-pixel-size="55" font-italic="0" typewriter="0;2;1;0;0" alignment="2" font-weight="50" box-width="406.281" font-color="255,255,255,255">wrp(img0), img4&lt;/content>
 &lt;/item>
 &lt;item type="QGraphicsTextItem" z-index="4">
  &lt;position x="647" y="415">
   &lt;transform>1,0,0,0,1,0,0,0,1&lt;/transform>
  &lt;/position>
  &lt;content shadow="0;#64000000;3;3;3" font-underline="0" box-height="63" font="Ubuntu" letter-spacing="0" font-pixel-size="55" font-italic="0" typewriter="0;2;1;0;0" alignment="2" font-weight="50" box-width="406.281" font-color="255,255,255,255">wrp(img0), img4&lt;/content>
 &lt;/item>
 &lt;item type="QGraphicsTextItem" z-index="3">
  &lt;position x="4" y="415">
   &lt;transform>1,0,0,0,1,0,0,0,1&lt;/transform>
  &lt;/position>
  &lt;content shadow="0;#64000000;3;3;3" font-underline="0" box-height="63" font="Ubuntu" letter-spacing="0" font-pixel-size="55" font-italic="0" typewriter="0;2;1;0;0" alignment="2" font-weight="50" box-width="274.313" font-color="255,255,255,255">img0, img4&lt;/content>
 &lt;/item>
 &lt;item type="QGraphicsTextItem" z-index="2">
  &lt;position x="1284" y="4">
   &lt;transform>1,0,0,0,1,0,0,0,1&lt;/transform>
  &lt;/position>
  &lt;content shadow="0;#64000000;3;3;3" font-underline="0" box-height="63" font="Ubuntu" letter-spacing="0" font-pixel-size="55" font-italic="0" typewriter="0;2;1;0;0" alignment="2" font-weight="50" box-width="606.094" font-color="255,255,255,255">Our Method - ResNet-34&lt;/content>
 &lt;/item>
 &lt;item type="QGraphicsTextItem" z-index="1">
  &lt;position x="647" y="4">
   &lt;transform>1,0,0,0,1,0,0,0,1&lt;/transform>
  &lt;/position>
  &lt;content shadow="0;#64000000;3;3;3" font-underline="0" box-height="63" font="Ubuntu" letter-spacing="0" font-pixel-size="55" font-italic="0" typewriter="0;2;1;0;0" alignment="2" font-weight="50" box-width="404.594" font-color="255,255,255,255">SURF &amp;amp; RANSAC&lt;/content>
 &lt;/item>
 &lt;item type="QGraphicsTextItem" z-index="0">
  &lt;position x="4" y="4">
   &lt;transform>1,0,0,0,1,0,0,0,1&lt;/transform>
  &lt;/position>
  &lt;content shadow="0;#64000000;3;3;3" font-underline="0" box-height="63" font="Ubuntu" letter-spacing="0" font-pixel-size="55" font-italic="0" typewriter="0;2;1;0;0" alignment="2" font-weight="50" box-width="194.922" font-color="255,255,255,255">Identity&lt;/content>
 &lt;/item>
 &lt;startviewport rect="0,0,1920,1080"/>
 &lt;endviewport rect="0,0,1920,1080"/>
 &lt;background color="0,0,0,0"/>
&lt;/kdenlivetitle>
</property>
  <property name="kdenlive:folderid">-1</property>
  <property name="kdenlive:id">8</property>
  <property name="kdenlive:file_hash">c975be9c59583868c15503b2e9a5b718</property>
  <property name="force_reload">0</property>
  <property name="meta.media.width">1920</property>
  <property name="meta.media.height">1080</property>
 </producer>
 <producer id="producer7" in="00:00:00.000" out="00:00:18.160">
  <property name="length">455</property>
  <property name="eof">pause</property>
  <property name="resource"/>
  <property name="progressive">1</property>
  <property name="aspect_ratio">1</property>
  <property name="seekable">1</property>
  <property name="mlt_service">kdenlivetitle</property>
  <property name="kdenlive:duration">125</property>
  <property name="kdenlive:clipname">base_overlay_initial_strong_motion</property>
  <property name="xmldata">&lt;kdenlivetitle duration="125" LC_NUMERIC="C" width="1920" height="1080" out="124">
 &lt;item type="QGraphicsTextItem" z-index="6">
  &lt;position x="831" y="634">
   &lt;transform>1,0,0,0,1,0,0,0,1&lt;/transform>
  &lt;/position>
  &lt;content line-spacing="0" shadow="0;#64000000;3;3;3" font-underline="0" box-height="285" font="Ubuntu" letter-spacing="0" font-pixel-size="50" font-italic="0" typewriter="0;2;1;0;0" alignment="1" font-weight="50" box-width="1007.11" font-color="255,255,255,255">For simple cases with camera motion only,
both methods perform well.

The severity of the extracted camera motion
is shown in the plot.&lt;/content>
 &lt;/item>
 &lt;item type="QGraphicsTextItem" z-index="5">
  &lt;position x="1285" y="412">
   &lt;transform>1,0,0,0,1,0,0,0,1&lt;/transform>
  &lt;/position>
  &lt;content shadow="0;#64000000;3;3;3" font-underline="0" box-height="63" font="Ubuntu" letter-spacing="0" font-pixel-size="55" font-italic="0" typewriter="0;2;1;0;0" alignment="2" font-weight="50" box-width="406.281" font-color="255,255,255,255">wrp(img0), img4&lt;/content>
 &lt;/item>
 &lt;item type="QGraphicsTextItem" z-index="4">
  &lt;position x="647" y="415">
   &lt;transform>1,0,0,0,1,0,0,0,1&lt;/transform>
  &lt;/position>
  &lt;content shadow="0;#64000000;3;3;3" font-underline="0" box-height="63" font="Ubuntu" letter-spacing="0" font-pixel-size="55" font-italic="0" typewriter="0;2;1;0;0" alignment="2" font-weight="50" box-width="406.281" font-color="255,255,255,255">wrp(img0), img4&lt;/content>
 &lt;/item>
 &lt;item type="QGraphicsTextItem" z-index="3">
  &lt;position x="4" y="415">
   &lt;transform>1,0,0,0,1,0,0,0,1&lt;/transform>
  &lt;/position>
  &lt;content shadow="0;#64000000;3;3;3" font-underline="0" box-height="63" font="Ubuntu" letter-spacing="0" font-pixel-size="55" font-italic="0" typewriter="0;2;1;0;0" alignment="2" font-weight="50" box-width="274.313" font-color="255,255,255,255">img0, img4&lt;/content>
 &lt;/item>
 &lt;item type="QGraphicsTextItem" z-index="2">
  &lt;position x="1284" y="4">
   &lt;transform>1,0,0,0,1,0,0,0,1&lt;/transform>
  &lt;/position>
  &lt;content shadow="0;#64000000;3;3;3" font-underline="0" box-height="63" font="Ubuntu" letter-spacing="0" font-pixel-size="55" font-italic="0" typewriter="0;2;1;0;0" alignment="2" font-weight="50" box-width="606.094" font-color="255,255,255,255">Our Method - ResNet-34&lt;/content>
 &lt;/item>
 &lt;item type="QGraphicsTextItem" z-index="1">
  &lt;position x="647" y="4">
   &lt;transform>1,0,0,0,1,0,0,0,1&lt;/transform>
  &lt;/position>
  &lt;content shadow="0;#64000000;3;3;3" font-underline="0" box-height="63" font="Ubuntu" letter-spacing="0" font-pixel-size="55" font-italic="0" typewriter="0;2;1;0;0" alignment="2" font-weight="50" box-width="404.594" font-color="255,255,255,255">SURF &amp;amp; RANSAC&lt;/content>
 &lt;/item>
 &lt;item type="QGraphicsTextItem" z-index="0">
  &lt;position x="4" y="4">
   &lt;transform>1,0,0,0,1,0,0,0,1&lt;/transform>
  &lt;/position>
  &lt;content shadow="0;#64000000;3;3;3" font-underline="0" box-height="63" font="Ubuntu" letter-spacing="0" font-pixel-size="55" font-italic="0" typewriter="0;2;1;0;0" alignment="2" font-weight="50" box-width="194.922" font-color="255,255,255,255">Identity&lt;/content>
 &lt;/item>
 &lt;startviewport rect="0,0,1920,1080"/>
 &lt;endviewport rect="0,0,1920,1080"/>
 &lt;background color="0,0,0,0"/>
&lt;/kdenlivetitle>
</property>
  <property name="kdenlive:folderid">-1</property>
  <property name="kdenlive:id">9</property>
  <property name="kdenlive:file_hash">d0ac2af19359201ab925c07090e17898</property>
  <property name="force_reload">0</property>
  <property name="meta.media.width">1920</property>
  <property name="meta.media.height">1080</property>
 </producer>
 <producer id="producer8" in="00:00:00.000" out="00:00:10.520">
  <property name="length">264</property>
  <property name="eof">pause</property>
  <property name="resource">img_pause/blend_plot_submission-f000728.png</property>
  <property name="ttl">25</property>
  <property name="aspect_ratio">1</property>
  <property name="progressive">1</property>
  <property name="seekable">1</property>
  <property name="meta.media.width">1920</property>
  <property name="meta.media.height">1080</property>
  <property name="mlt_service">qimage</property>
  <property name="kdenlive:clipname"/>
  <property name="kdenlive:duration">00:00:05.000</property>
  <property name="kdenlive:folderid">-1</property>
  <property name="kdenlive:id">10</property>
  <property name="kdenlive:file_size">889573</property>
  <property name="kdenlive:file_hash">8710202fdcaffc6dc6fdd7eb13b447dd</property>
 </producer>
 <producer id="producer9" in="00:00:00.000" out="00:00:04.960">
  <property name="length">00:00:05.000</property>
  <property name="eof">pause</property>
  <property name="resource">img_pause/blend_plot_submission-f001090.png</property>
  <property name="ttl">25</property>
  <property name="aspect_ratio">1</property>
  <property name="progressive">1</property>
  <property name="seekable">1</property>
  <property name="meta.media.width">1920</property>
  <property name="meta.media.height">1080</property>
  <property name="mlt_service">qimage</property>
  <property name="kdenlive:clipname"/>
  <property name="kdenlive:duration">00:00:05.000</property>
  <property name="kdenlive:folderid">-1</property>
  <property name="kdenlive:id">11</property>
  <property name="kdenlive:file_size">911260</property>
  <property name="kdenlive:file_hash">595f9503abbf68e13232d2b8433f8f3b</property>
 </producer>
 <producer id="producer10" in="00:00:00.000" out="00:00:09.320">
  <property name="length">234</property>
  <property name="eof">pause</property>
  <property name="resource">img_pause/blend_plot_submission-f000772.png</property>
  <property name="ttl">25</property>
  <property name="aspect_ratio">1</property>
  <property name="progressive">1</property>
  <property name="seekable">1</property>
  <property name="meta.media.width">1920</property>
  <property name="meta.media.height">1080</property>
  <property name="mlt_service">qimage</property>
  <property name="kdenlive:clipname"/>
  <property name="kdenlive:duration">00:00:05.000</property>
  <property name="kdenlive:folderid">-1</property>
  <property name="kdenlive:id">12</property>
  <property name="kdenlive:file_size">981316</property>
  <property name="kdenlive:file_hash">aca32541433679df3a37f3e5a7d5dad9</property>
 </producer>
 <producer id="producer11" in="00:00:00.000" out="00:00:18.160">
  <property name="length">455</property>
  <property name="eof">pause</property>
  <property name="resource"/>
  <property name="progressive">1</property>
  <property name="aspect_ratio">1</property>
  <property name="seekable">1</property>
  <property name="mlt_service">kdenlivetitle</property>
  <property name="kdenlive:duration">125</property>
  <property name="kdenlive:clipname">base_overlay_small_object_motion</property>
  <property name="xmldata">&lt;kdenlivetitle duration="125" LC_NUMERIC="C" width="1920" height="1080" out="124">
 &lt;item type="QGraphicsTextItem" z-index="6">
  &lt;position x="835" y="634">
   &lt;transform>1,0,0,0,1,0,0,0,1&lt;/transform>
  &lt;/position>
  &lt;content line-spacing="0" shadow="0;#64000000;3;3;3" font-underline="0" box-height="228" font="Ubuntu" letter-spacing="0" font-pixel-size="50" font-italic="0" typewriter="0;2;1;0;0" alignment="1" font-weight="50" box-width="1048.06" font-color="255,255,255,255">Already for little organ motion, SURF &amp;amp; 
RANSAC falsely aligns the moving gallbladder.

Laparoscopic camera motion is overestimated.&lt;/content>
 &lt;/item>
 &lt;item type="QGraphicsTextItem" z-index="5">
  &lt;position x="1285" y="412">
   &lt;transform>1,0,0,0,1,0,0,0,1&lt;/transform>
  &lt;/position>
  &lt;content shadow="0;#64000000;3;3;3" font-underline="0" box-height="63" font="Ubuntu" letter-spacing="0" font-pixel-size="55" font-italic="0" typewriter="0;2;1;0;0" alignment="2" font-weight="50" box-width="406.281" font-color="255,255,255,255">wrp(img0), img4&lt;/content>
 &lt;/item>
 &lt;item type="QGraphicsTextItem" z-index="4">
  &lt;position x="647" y="415">
   &lt;transform>1,0,0,0,1,0,0,0,1&lt;/transform>
  &lt;/position>
  &lt;content shadow="0;#64000000;3;3;3" font-underline="0" box-height="63" font="Ubuntu" letter-spacing="0" font-pixel-size="55" font-italic="0" typewriter="0;2;1;0;0" alignment="2" font-weight="50" box-width="406.281" font-color="255,255,255,255">wrp(img0), img4&lt;/content>
 &lt;/item>
 &lt;item type="QGraphicsTextItem" z-index="3">
  &lt;position x="4" y="415">
   &lt;transform>1,0,0,0,1,0,0,0,1&lt;/transform>
  &lt;/position>
  &lt;content shadow="0;#64000000;3;3;3" font-underline="0" box-height="63" font="Ubuntu" letter-spacing="0" font-pixel-size="55" font-italic="0" typewriter="0;2;1;0;0" alignment="2" font-weight="50" box-width="274.313" font-color="255,255,255,255">img0, img4&lt;/content>
 &lt;/item>
 &lt;item type="QGraphicsTextItem" z-index="2">
  &lt;position x="1284" y="4">
   &lt;transform>1,0,0,0,1,0,0,0,1&lt;/transform>
  &lt;/position>
  &lt;content shadow="0;#64000000;3;3;3" font-underline="0" box-height="63" font="Ubuntu" letter-spacing="0" font-pixel-size="55" font-italic="0" typewriter="0;2;1;0;0" alignment="2" font-weight="50" box-width="606.094" font-color="255,255,255,255">Our Method - ResNet-34&lt;/content>
 &lt;/item>
 &lt;item type="QGraphicsTextItem" z-index="1">
  &lt;position x="647" y="4">
   &lt;transform>1,0,0,0,1,0,0,0,1&lt;/transform>
  &lt;/position>
  &lt;content shadow="0;#64000000;3;3;3" font-underline="0" box-height="63" font="Ubuntu" letter-spacing="0" font-pixel-size="55" font-italic="0" typewriter="0;2;1;0;0" alignment="2" font-weight="50" box-width="404.594" font-color="255,255,255,255">SURF &amp;amp; RANSAC&lt;/content>
 &lt;/item>
 &lt;item type="QGraphicsTextItem" z-index="0">
  &lt;position x="4" y="4">
   &lt;transform>1,0,0,0,1,0,0,0,1&lt;/transform>
  &lt;/position>
  &lt;content shadow="0;#64000000;3;3;3" font-underline="0" box-height="63" font="Ubuntu" letter-spacing="0" font-pixel-size="55" font-italic="0" typewriter="0;2;1;0;0" alignment="2" font-weight="50" box-width="194.922" font-color="255,255,255,255">Identity&lt;/content>
 &lt;/item>
 &lt;startviewport rect="0,0,1920,1080"/>
 &lt;endviewport rect="0,0,1920,1080"/>
 &lt;background color="0,0,0,0"/>
&lt;/kdenlivetitle>
</property>
  <property name="kdenlive:folderid">-1</property>
  <property name="kdenlive:id">13</property>
  <property name="kdenlive:file_hash">d0ac2af19359201ab925c07090e17898</property>
  <property name="force_reload">2</property>
  <property name="meta.media.width">1920</property>
  <property name="meta.media.height">1080</property>
 </producer>
 <producer id="producer12" in="00:00:00.000" out="00:00:05.720">
  <property name="length">144</property>
  <property name="eof">pause</property>
  <property name="resource">img_pause/blend_plot_submission-f001138.png</property>
  <property name="ttl">25</property>
  <property name="aspect_ratio">1</property>
  <property name="progressive">1</property>
  <property name="seekable">1</property>
  <property name="meta.media.width">1920</property>
  <property name="meta.media.height">1080</property>
  <property name="mlt_service">qimage</property>
  <property name="kdenlive:clipname"/>
  <property name="kdenlive:duration">00:00:05.000</property>
  <property name="kdenlive:folderid">-1</property>
  <property name="kdenlive:id">14</property>
  <property name="kdenlive:file_size">927171</property>
  <property name="kdenlive:file_hash">dd88d3481d0ac59b3c9ab19802b9349b</property>
 </producer>
 <producer id="producer13" in="00:00:00.000" out="00:00:18.160">
  <property name="length">455</property>
  <property name="eof">pause</property>
  <property name="resource"/>
  <property name="progressive">1</property>
  <property name="aspect_ratio">1</property>
  <property name="seekable">1</property>
  <property name="mlt_service">kdenlivetitle</property>
  <property name="kdenlive:duration">125</property>
  <property name="kdenlive:clipname">base_overlay_strong_motion</property>
  <property name="xmldata">&lt;kdenlivetitle duration="125" LC_NUMERIC="C" width="1920" height="1080" out="124">
 &lt;item type="QGraphicsTextItem" z-index="6">
  &lt;position x="835" y="635">
   &lt;transform>1,0,0,0,1,0,0,0,1&lt;/transform>
  &lt;/position>
  &lt;content line-spacing="0" shadow="0;#64000000;3;3;3" font-underline="0" box-height="114" font="Ubuntu" letter-spacing="0" font-pixel-size="50" font-italic="0" typewriter="0;2;1;0;0" alignment="1" font-weight="50" box-width="945.203" font-color="255,255,255,255">Another example where camera motion is
dominant. Both methods perform well.&lt;/content>
 &lt;/item>
 &lt;item type="QGraphicsTextItem" z-index="5">
  &lt;position x="1285" y="412">
   &lt;transform>1,0,0,0,1,0,0,0,1&lt;/transform>
  &lt;/position>
  &lt;content shadow="0;#64000000;3;3;3" font-underline="0" box-height="63" font="Ubuntu" letter-spacing="0" font-pixel-size="55" font-italic="0" typewriter="0;2;1;0;0" alignment="2" font-weight="50" box-width="406.281" font-color="255,255,255,255">wrp(img0), img4&lt;/content>
 &lt;/item>
 &lt;item type="QGraphicsTextItem" z-index="4">
  &lt;position x="647" y="415">
   &lt;transform>1,0,0,0,1,0,0,0,1&lt;/transform>
  &lt;/position>
  &lt;content shadow="0;#64000000;3;3;3" font-underline="0" box-height="63" font="Ubuntu" letter-spacing="0" font-pixel-size="55" font-italic="0" typewriter="0;2;1;0;0" alignment="2" font-weight="50" box-width="406.281" font-color="255,255,255,255">wrp(img0), img4&lt;/content>
 &lt;/item>
 &lt;item type="QGraphicsTextItem" z-index="3">
  &lt;position x="4" y="415">
   &lt;transform>1,0,0,0,1,0,0,0,1&lt;/transform>
  &lt;/position>
  &lt;content shadow="0;#64000000;3;3;3" font-underline="0" box-height="63" font="Ubuntu" letter-spacing="0" font-pixel-size="55" font-italic="0" typewriter="0;2;1;0;0" alignment="2" font-weight="50" box-width="274.313" font-color="255,255,255,255">img0, img4&lt;/content>
 &lt;/item>
 &lt;item type="QGraphicsTextItem" z-index="2">
  &lt;position x="1284" y="4">
   &lt;transform>1,0,0,0,1,0,0,0,1&lt;/transform>
  &lt;/position>
  &lt;content shadow="0;#64000000;3;3;3" font-underline="0" box-height="63" font="Ubuntu" letter-spacing="0" font-pixel-size="55" font-italic="0" typewriter="0;2;1;0;0" alignment="2" font-weight="50" box-width="606.094" font-color="255,255,255,255">Our Method - ResNet-34&lt;/content>
 &lt;/item>
 &lt;item type="QGraphicsTextItem" z-index="1">
  &lt;position x="647" y="4">
   &lt;transform>1,0,0,0,1,0,0,0,1&lt;/transform>
  &lt;/position>
  &lt;content shadow="0;#64000000;3;3;3" font-underline="0" box-height="63" font="Ubuntu" letter-spacing="0" font-pixel-size="55" font-italic="0" typewriter="0;2;1;0;0" alignment="2" font-weight="50" box-width="404.594" font-color="255,255,255,255">SURF &amp;amp; RANSAC&lt;/content>
 &lt;/item>
 &lt;item type="QGraphicsTextItem" z-index="0">
  &lt;position x="4" y="4">
   &lt;transform>1,0,0,0,1,0,0,0,1&lt;/transform>
  &lt;/position>
  &lt;content shadow="0;#64000000;3;3;3" font-underline="0" box-height="63" font="Ubuntu" letter-spacing="0" font-pixel-size="55" font-italic="0" typewriter="0;2;1;0;0" alignment="2" font-weight="50" box-width="194.922" font-color="255,255,255,255">Identity&lt;/content>
 &lt;/item>
 &lt;startviewport rect="0,0,1920,1080"/>
 &lt;endviewport rect="0,0,1920,1080"/>
 &lt;background color="0,0,0,0"/>
&lt;/kdenlivetitle>
</property>
  <property name="kdenlive:folderid">-1</property>
  <property name="kdenlive:id">15</property>
  <property name="kdenlive:file_hash">a9c754deab72795f1bc944ec6be74577</property>
  <property name="force_reload">2</property>
  <property name="meta.media.width">1920</property>
  <property name="meta.media.height">1080</property>
 </producer>
 <producer id="producer14" in="00:00:00.000" out="00:00:06.720">
  <property name="length">169</property>
  <property name="eof">pause</property>
  <property name="resource">img_pause/blend_plot_submission-f001456.png</property>
  <property name="ttl">25</property>
  <property name="aspect_ratio">1</property>
  <property name="progressive">1</property>
  <property name="seekable">1</property>
  <property name="meta.media.width">1920</property>
  <property name="meta.media.height">1080</property>
  <property name="mlt_service">qimage</property>
  <property name="kdenlive:clipname"/>
  <property name="kdenlive:duration">00:00:05.000</property>
  <property name="kdenlive:folderid">-1</property>
  <property name="kdenlive:id">16</property>
  <property name="kdenlive:file_size">911330</property>
  <property name="kdenlive:file_hash">25627733b9a7ecf4a55bcb9a0ef84773</property>
 </producer>
 <producer id="producer15" in="00:00:00.000" out="00:00:18.160">
  <property name="length">455</property>
  <property name="eof">pause</property>
  <property name="resource"/>
  <property name="progressive">1</property>
  <property name="aspect_ratio">1</property>
  <property name="seekable">1</property>
  <property name="mlt_service">kdenlivetitle</property>
  <property name="kdenlive:duration">125</property>
  <property name="kdenlive:clipname">base_overlay_strong_motion_tool_motion</property>
  <property name="xmldata">&lt;kdenlivetitle duration="125" LC_NUMERIC="C" width="1920" height="1080" out="124">
 &lt;item type="QGraphicsTextItem" z-index="6">
  &lt;position x="835" y="633">
   &lt;transform>1,0,0,0,1,0,0,0,1&lt;/transform>
  &lt;/position>
  &lt;content line-spacing="0" shadow="0;#64000000;3;3;3" font-underline="0" box-height="228" font="Ubuntu" letter-spacing="0" font-pixel-size="50" font-italic="0" typewriter="0;2;1;0;0" alignment="1" font-weight="50" box-width="1048.06" font-color="255,255,255,255">SURF &amp;amp; RANSAC tends to falsely align tools.
This can especially be seen at the veins.

Laparoscopic camera motion is overestimated.&lt;/content>
 &lt;/item>
 &lt;item type="QGraphicsTextItem" z-index="5">
  &lt;position x="1285" y="412">
   &lt;transform>1,0,0,0,1,0,0,0,1&lt;/transform>
  &lt;/position>
  &lt;content shadow="0;#64000000;3;3;3" font-underline="0" box-height="63" font="Ubuntu" letter-spacing="0" font-pixel-size="55" font-italic="0" typewriter="0;2;1;0;0" alignment="2" font-weight="50" box-width="406.281" font-color="255,255,255,255">wrp(img0), img4&lt;/content>
 &lt;/item>
 &lt;item type="QGraphicsTextItem" z-index="4">
  &lt;position x="647" y="415">
   &lt;transform>1,0,0,0,1,0,0,0,1&lt;/transform>
  &lt;/position>
  &lt;content shadow="0;#64000000;3;3;3" font-underline="0" box-height="63" font="Ubuntu" letter-spacing="0" font-pixel-size="55" font-italic="0" typewriter="0;2;1;0;0" alignment="2" font-weight="50" box-width="406.281" font-color="255,255,255,255">wrp(img0), img4&lt;/content>
 &lt;/item>
 &lt;item type="QGraphicsTextItem" z-index="3">
  &lt;position x="4" y="415">
   &lt;transform>1,0,0,0,1,0,0,0,1&lt;/transform>
  &lt;/position>
  &lt;content shadow="0;#64000000;3;3;3" font-underline="0" box-height="63" font="Ubuntu" letter-spacing="0" font-pixel-size="55" font-italic="0" typewriter="0;2;1;0;0" alignment="2" font-weight="50" box-width="274.313" font-color="255,255,255,255">img0, img4&lt;/content>
 &lt;/item>
 &lt;item type="QGraphicsTextItem" z-index="2">
  &lt;position x="1284" y="4">
   &lt;transform>1,0,0,0,1,0,0,0,1&lt;/transform>
  &lt;/position>
  &lt;content shadow="0;#64000000;3;3;3" font-underline="0" box-height="63" font="Ubuntu" letter-spacing="0" font-pixel-size="55" font-italic="0" typewriter="0;2;1;0;0" alignment="2" font-weight="50" box-width="606.094" font-color="255,255,255,255">Our Method - ResNet-34&lt;/content>
 &lt;/item>
 &lt;item type="QGraphicsTextItem" z-index="1">
  &lt;position x="647" y="4">
   &lt;transform>1,0,0,0,1,0,0,0,1&lt;/transform>
  &lt;/position>
  &lt;content shadow="0;#64000000;3;3;3" font-underline="0" box-height="63" font="Ubuntu" letter-spacing="0" font-pixel-size="55" font-italic="0" typewriter="0;2;1;0;0" alignment="2" font-weight="50" box-width="404.594" font-color="255,255,255,255">SURF &amp;amp; RANSAC&lt;/content>
 &lt;/item>
 &lt;item type="QGraphicsTextItem" z-index="0">
  &lt;position x="4" y="4">
   &lt;transform>1,0,0,0,1,0,0,0,1&lt;/transform>
  &lt;/position>
  &lt;content shadow="0;#64000000;3;3;3" font-underline="0" box-height="63" font="Ubuntu" letter-spacing="0" font-pixel-size="55" font-italic="0" typewriter="0;2;1;0;0" alignment="2" font-weight="50" box-width="194.922" font-color="255,255,255,255">Identity&lt;/content>
 &lt;/item>
 &lt;startviewport rect="0,0,1920,1080"/>
 &lt;endviewport rect="0,0,1920,1080"/>
 &lt;background color="0,0,0,0"/>
&lt;/kdenlivetitle>
</property>
  <property name="kdenlive:folderid">-1</property>
  <property name="kdenlive:id">17</property>
  <property name="kdenlive:file_hash">f76162076d3ed74b9368eb793249674a</property>
  <property name="force_reload">2</property>
  <property name="meta.media.width">1920</property>
  <property name="meta.media.height">1080</property>
 </producer>
 <producer id="producer16" in="00:00:00.000" out="00:00:08.880">
  <property name="length">223</property>
  <property name="eof">pause</property>
  <property name="resource">img_pause/blend_plot_submission-f001688.png</property>
  <property name="ttl">25</property>
  <property name="aspect_ratio">1</property>
  <property name="progressive">1</property>
  <property name="seekable">1</property>
  <property name="meta.media.width">1920</property>
  <property name="meta.media.height">1080</property>
  <property name="mlt_service">qimage</property>
  <property name="kdenlive:clipname"/>
  <property name="kdenlive:duration">00:00:05.000</property>
  <property name="kdenlive:folderid">-1</property>
  <property name="kdenlive:id">18</property>
  <property name="kdenlive:file_size">895378</property>
  <property name="kdenlive:file_hash">65735b0d8c450ab310547b5dbd5fb0f5</property>
 </producer>
 <producer id="producer17" in="00:00:00.000" out="00:00:18.160">
  <property name="length">455</property>
  <property name="eof">pause</property>
  <property name="resource"/>
  <property name="progressive">1</property>
  <property name="aspect_ratio">1</property>
  <property name="seekable">1</property>
  <property name="mlt_service">kdenlivetitle</property>
  <property name="kdenlive:duration">125</property>
  <property name="kdenlive:clipname">base_overlay_texture</property>
  <property name="xmldata">&lt;kdenlivetitle duration="125" LC_NUMERIC="C" width="1920" height="1080" out="124">
 &lt;item type="QGraphicsTextItem" z-index="6">
  &lt;position x="864" y="633">
   &lt;transform>1,0,0,0,1,0,0,0,1&lt;/transform>
  &lt;/position>
  &lt;content line-spacing="0" shadow="0;#64000000;3;3;3" font-underline="0" box-height="285" font="Ubuntu" letter-spacing="0" font-pixel-size="50" font-italic="0" typewriter="0;2;1;0;0" alignment="1" font-weight="50" box-width="1018.98" font-color="255,255,255,255">With almost no camera motion (see Identity),
SURF &amp;amp; RANSAC misaligns the images.

This is because little texture is in the upper
part of the view.&lt;/content>
 &lt;/item>
 &lt;item type="QGraphicsTextItem" z-index="5">
  &lt;position x="1285" y="412">
   &lt;transform>1,0,0,0,1,0,0,0,1&lt;/transform>
  &lt;/position>
  &lt;content shadow="0;#64000000;3;3;3" font-underline="0" box-height="63" font="Ubuntu" letter-spacing="0" font-pixel-size="55" font-italic="0" typewriter="0;2;1;0;0" alignment="2" font-weight="50" box-width="406.281" font-color="255,255,255,255">wrp(img0), img4&lt;/content>
 &lt;/item>
 &lt;item type="QGraphicsTextItem" z-index="4">
  &lt;position x="647" y="415">
   &lt;transform>1,0,0,0,1,0,0,0,1&lt;/transform>
  &lt;/position>
  &lt;content shadow="0;#64000000;3;3;3" font-underline="0" box-height="63" font="Ubuntu" letter-spacing="0" font-pixel-size="55" font-italic="0" typewriter="0;2;1;0;0" alignment="2" font-weight="50" box-width="406.281" font-color="255,255,255,255">wrp(img0), img4&lt;/content>
 &lt;/item>
 &lt;item type="QGraphicsTextItem" z-index="3">
  &lt;position x="4" y="415">
   &lt;transform>1,0,0,0,1,0,0,0,1&lt;/transform>
  &lt;/position>
  &lt;content shadow="0;#64000000;3;3;3" font-underline="0" box-height="63" font="Ubuntu" letter-spacing="0" font-pixel-size="55" font-italic="0" typewriter="0;2;1;0;0" alignment="2" font-weight="50" box-width="274.313" font-color="255,255,255,255">img0, img4&lt;/content>
 &lt;/item>
 &lt;item type="QGraphicsTextItem" z-index="2">
  &lt;position x="1284" y="4">
   &lt;transform>1,0,0,0,1,0,0,0,1&lt;/transform>
  &lt;/position>
  &lt;content shadow="0;#64000000;3;3;3" font-underline="0" box-height="63" font="Ubuntu" letter-spacing="0" font-pixel-size="55" font-italic="0" typewriter="0;2;1;0;0" alignment="2" font-weight="50" box-width="606.094" font-color="255,255,255,255">Our Method - ResNet-34&lt;/content>
 &lt;/item>
 &lt;item type="QGraphicsTextItem" z-index="1">
  &lt;position x="647" y="4">
   &lt;transform>1,0,0,0,1,0,0,0,1&lt;/transform>
  &lt;/position>
  &lt;content shadow="0;#64000000;3;3;3" font-underline="0" box-height="63" font="Ubuntu" letter-spacing="0" font-pixel-size="55" font-italic="0" typewriter="0;2;1;0;0" alignment="2" font-weight="50" box-width="404.594" font-color="255,255,255,255">SURF &amp;amp; RANSAC&lt;/content>
 &lt;/item>
 &lt;item type="QGraphicsTextItem" z-index="0">
  &lt;position x="4" y="4">
   &lt;transform>1,0,0,0,1,0,0,0,1&lt;/transform>
  &lt;/position>
  &lt;content shadow="0;#64000000;3;3;3" font-underline="0" box-height="63" font="Ubuntu" letter-spacing="0" font-pixel-size="55" font-italic="0" typewriter="0;2;1;0;0" alignment="2" font-weight="50" box-width="194.922" font-color="255,255,255,255">Identity&lt;/content>
 &lt;/item>
 &lt;startviewport rect="0,0,1920,1080"/>
 &lt;endviewport rect="0,0,1920,1080"/>
 &lt;background color="0,0,0,0"/>
&lt;/kdenlivetitle>
</property>
  <property name="kdenlive:folderid">-1</property>
  <property name="kdenlive:id">19</property>
  <property name="force_reload">2</property>
  <property name="kdenlive:file_hash">787601efb226abcbdb8468bd5a414536</property>
  <property name="meta.media.width">1920</property>
  <property name="meta.media.height">1080</property>
 </producer>
 <producer id="producer18" in="00:00:00.000" out="00:00:07.800">
  <property name="length">196</property>
  <property name="eof">pause</property>
  <property name="resource">img_pause/blend_plot_submission-f001856.png</property>
  <property name="ttl">25</property>
  <property name="aspect_ratio">1</property>
  <property name="progressive">1</property>
  <property name="seekable">1</property>
  <property name="meta.media.width">1920</property>
  <property name="meta.media.height">1080</property>
  <property name="mlt_service">qimage</property>
  <property name="kdenlive:clipname"/>
  <property name="kdenlive:duration">00:00:05.000</property>
  <property name="kdenlive:folderid">-1</property>
  <property name="kdenlive:id">20</property>
  <property name="kdenlive:file_size">913520</property>
  <property name="kdenlive:file_hash">4ab798ae6dc6d2644c39fe3eba75d01c</property>
 </producer>
 <producer id="producer19" in="00:00:00.000" out="00:00:18.160">
  <property name="length">455</property>
  <property name="eof">pause</property>
  <property name="resource"/>
  <property name="progressive">1</property>
  <property name="aspect_ratio">1</property>
  <property name="seekable">1</property>
  <property name="mlt_service">kdenlivetitle</property>
  <property name="kdenlive:duration">125</property>
  <property name="kdenlive:clipname">base_overlay_severe_object_motion</property>
  <property name="xmldata">&lt;kdenlivetitle duration="125" LC_NUMERIC="C" width="1920" height="1080" out="124">
 &lt;item type="QGraphicsTextItem" z-index="6">
  &lt;position x="837" y="636">
   &lt;transform>1,0,0,0,1,0,0,0,1&lt;/transform>
  &lt;/position>
  &lt;content line-spacing="0" shadow="0;#64000000;3;3;3" font-underline="0" box-height="285" font="Ubuntu" letter-spacing="0" font-pixel-size="50" font-italic="0" typewriter="0;2;1;0;0" alignment="1" font-weight="50" box-width="1031.66" font-color="255,255,255,255">Our method even performs well under severe
object and tool motion. 

The misaligned veins are caused by 
deformation.&lt;/content>
 &lt;/item>
 &lt;item type="QGraphicsTextItem" z-index="5">
  &lt;position x="1285" y="412">
   &lt;transform>1,0,0,0,1,0,0,0,1&lt;/transform>
  &lt;/position>
  &lt;content shadow="0;#64000000;3;3;3" font-underline="0" box-height="63" font="Ubuntu" letter-spacing="0" font-pixel-size="55" font-italic="0" typewriter="0;2;1;0;0" alignment="2" font-weight="50" box-width="406.281" font-color="255,255,255,255">wrp(img0), img4&lt;/content>
 &lt;/item>
 &lt;item type="QGraphicsTextItem" z-index="4">
  &lt;position x="647" y="415">
   &lt;transform>1,0,0,0,1,0,0,0,1&lt;/transform>
  &lt;/position>
  &lt;content shadow="0;#64000000;3;3;3" font-underline="0" box-height="63" font="Ubuntu" letter-spacing="0" font-pixel-size="55" font-italic="0" typewriter="0;2;1;0;0" alignment="2" font-weight="50" box-width="406.281" font-color="255,255,255,255">wrp(img0), img4&lt;/content>
 &lt;/item>
 &lt;item type="QGraphicsTextItem" z-index="3">
  &lt;position x="4" y="415">
   &lt;transform>1,0,0,0,1,0,0,0,1&lt;/transform>
  &lt;/position>
  &lt;content shadow="0;#64000000;3;3;3" font-underline="0" box-height="63" font="Ubuntu" letter-spacing="0" font-pixel-size="55" font-italic="0" typewriter="0;2;1;0;0" alignment="2" font-weight="50" box-width="274.313" font-color="255,255,255,255">img0, img4&lt;/content>
 &lt;/item>
 &lt;item type="QGraphicsTextItem" z-index="2">
  &lt;position x="1284" y="4">
   &lt;transform>1,0,0,0,1,0,0,0,1&lt;/transform>
  &lt;/position>
  &lt;content shadow="0;#64000000;3;3;3" font-underline="0" box-height="63" font="Ubuntu" letter-spacing="0" font-pixel-size="55" font-italic="0" typewriter="0;2;1;0;0" alignment="2" font-weight="50" box-width="606.094" font-color="255,255,255,255">Our Method - ResNet-34&lt;/content>
 &lt;/item>
 &lt;item type="QGraphicsTextItem" z-index="1">
  &lt;position x="647" y="4">
   &lt;transform>1,0,0,0,1,0,0,0,1&lt;/transform>
  &lt;/position>
  &lt;content shadow="0;#64000000;3;3;3" font-underline="0" box-height="63" font="Ubuntu" letter-spacing="0" font-pixel-size="55" font-italic="0" typewriter="0;2;1;0;0" alignment="2" font-weight="50" box-width="404.594" font-color="255,255,255,255">SURF &amp;amp; RANSAC&lt;/content>
 &lt;/item>
 &lt;item type="QGraphicsTextItem" z-index="0">
  &lt;position x="4" y="4">
   &lt;transform>1,0,0,0,1,0,0,0,1&lt;/transform>
  &lt;/position>
  &lt;content shadow="0;#64000000;3;3;3" font-underline="0" box-height="63" font="Ubuntu" letter-spacing="0" font-pixel-size="55" font-italic="0" typewriter="0;2;1;0;0" alignment="2" font-weight="50" box-width="194.922" font-color="255,255,255,255">Identity&lt;/content>
 &lt;/item>
 &lt;startviewport rect="0,0,1920,1080"/>
 &lt;endviewport rect="0,0,1920,1080"/>
 &lt;background color="0,0,0,0"/>
&lt;/kdenlivetitle>
</property>
  <property name="kdenlive:folderid">-1</property>
  <property name="kdenlive:id">21</property>
  <property name="force_reload">0</property>
  <property name="kdenlive:file_hash">787601efb226abcbdb8468bd5a414536</property>
  <property name="meta.media.width">1920</property>
  <property name="meta.media.height">1080</property>
 </producer>
 <producer id="producer20" in="00:00:00.000" out="00:00:12.960">
  <property name="length">325</property>
  <property name="eof">pause</property>
  <property name="resource">img_pause/blend_plot_submission-f002244.png</property>
  <property name="ttl">25</property>
  <property name="aspect_ratio">1</property>
  <property name="progressive">1</property>
  <property name="seekable">1</property>
  <property name="meta.media.width">1920</property>
  <property name="meta.media.height">1080</property>
  <property name="mlt_service">qimage</property>
  <property name="kdenlive:clipname"/>
  <property name="kdenlive:duration">00:00:05.000</property>
  <property name="kdenlive:folderid">-1</property>
  <property name="kdenlive:id">22</property>
  <property name="kdenlive:file_size">891518</property>
  <property name="kdenlive:file_hash">c2bde138c0accfef08184cc775badfd4</property>
 </producer>
 <producer id="producer21" in="00:00:00.000" out="00:00:18.160">
  <property name="length">455</property>
  <property name="eof">pause</property>
  <property name="resource"/>
  <property name="progressive">1</property>
  <property name="aspect_ratio">1</property>
  <property name="seekable">1</property>
  <property name="mlt_service">kdenlivetitle</property>
  <property name="kdenlive:duration">125</property>
  <property name="kdenlive:clipname">base_overlay_smoke</property>
  <property name="xmldata">&lt;kdenlivetitle duration="125" LC_NUMERIC="C" width="1920" height="1080" out="124">
 &lt;item type="QGraphicsTextItem" z-index="6">
  &lt;position x="834" y="635">
   &lt;transform>1,0,0,0,1,0,0,0,1&lt;/transform>
  &lt;/position>
  &lt;content line-spacing="0" shadow="0;#64000000;3;3;3" font-underline="0" box-height="228" font="Ubuntu" letter-spacing="0" font-pixel-size="50" font-italic="0" typewriter="0;2;1;0;0" alignment="1" font-weight="50" box-width="1048.06" font-color="255,255,255,255">SURF &amp;amp; RANSAC can get confused by smoke.
This causes misalignment.

Laparoscopic camera motion is overestimated.&lt;/content>
 &lt;/item>
 &lt;item type="QGraphicsTextItem" z-index="5">
  &lt;position x="1285" y="412">
   &lt;transform>1,0,0,0,1,0,0,0,1&lt;/transform>
  &lt;/position>
  &lt;content shadow="0;#64000000;3;3;3" font-underline="0" box-height="63" font="Ubuntu" letter-spacing="0" font-pixel-size="55" font-italic="0" typewriter="0;2;1;0;0" alignment="2" font-weight="50" box-width="406.281" font-color="255,255,255,255">wrp(img0), img4&lt;/content>
 &lt;/item>
 &lt;item type="QGraphicsTextItem" z-index="4">
  &lt;position x="647" y="415">
   &lt;transform>1,0,0,0,1,0,0,0,1&lt;/transform>
  &lt;/position>
  &lt;content shadow="0;#64000000;3;3;3" font-underline="0" box-height="63" font="Ubuntu" letter-spacing="0" font-pixel-size="55" font-italic="0" typewriter="0;2;1;0;0" alignment="2" font-weight="50" box-width="406.281" font-color="255,255,255,255">wrp(img0), img4&lt;/content>
 &lt;/item>
 &lt;item type="QGraphicsTextItem" z-index="3">
  &lt;position x="4" y="415">
   &lt;transform>1,0,0,0,1,0,0,0,1&lt;/transform>
  &lt;/position>
  &lt;content shadow="0;#64000000;3;3;3" font-underline="0" box-height="63" font="Ubuntu" letter-spacing="0" font-pixel-size="55" font-italic="0" typewriter="0;2;1;0;0" alignment="2" font-weight="50" box-width="274.313" font-color="255,255,255,255">img0, img4&lt;/content>
 &lt;/item>
 &lt;item type="QGraphicsTextItem" z-index="2">
  &lt;position x="1284" y="4">
   &lt;transform>1,0,0,0,1,0,0,0,1&lt;/transform>
  &lt;/position>
  &lt;content shadow="0;#64000000;3;3;3" font-underline="0" box-height="63" font="Ubuntu" letter-spacing="0" font-pixel-size="55" font-italic="0" typewriter="0;2;1;0;0" alignment="2" font-weight="50" box-width="606.094" font-color="255,255,255,255">Our Method - ResNet-34&lt;/content>
 &lt;/item>
 &lt;item type="QGraphicsTextItem" z-index="1">
  &lt;position x="647" y="4">
   &lt;transform>1,0,0,0,1,0,0,0,1&lt;/transform>
  &lt;/position>
  &lt;content shadow="0;#64000000;3;3;3" font-underline="0" box-height="63" font="Ubuntu" letter-spacing="0" font-pixel-size="55" font-italic="0" typewriter="0;2;1;0;0" alignment="2" font-weight="50" box-width="404.594" font-color="255,255,255,255">SURF &amp;amp; RANSAC&lt;/content>
 &lt;/item>
 &lt;item type="QGraphicsTextItem" z-index="0">
  &lt;position x="4" y="4">
   &lt;transform>1,0,0,0,1,0,0,0,1&lt;/transform>
  &lt;/position>
  &lt;content shadow="0;#64000000;3;3;3" font-underline="0" box-height="63" font="Ubuntu" letter-spacing="0" font-pixel-size="55" font-italic="0" typewriter="0;2;1;0;0" alignment="2" font-weight="50" box-width="194.922" font-color="255,255,255,255">Identity&lt;/content>
 &lt;/item>
 &lt;startviewport rect="0,0,1920,1080"/>
 &lt;endviewport rect="0,0,1920,1080"/>
 &lt;background color="0,0,0,0"/>
&lt;/kdenlivetitle>
</property>
  <property name="kdenlive:folderid">-1</property>
  <property name="kdenlive:id">23</property>
  <property name="force_reload">0</property>
  <property name="kdenlive:file_hash">be3765f376d0e5443fe0cc4fbbc4b8d3</property>
  <property name="meta.media.width">1920</property>
  <property name="meta.media.height">1080</property>
 </producer>
 <producer id="producer22" in="00:00:00.000" out="00:00:20.160">
  <property name="length">505</property>
  <property name="eof">pause</property>
  <property name="resource"/>
  <property name="progressive">1</property>
  <property name="aspect_ratio">1</property>
  <property name="seekable">1</property>
  <property name="mlt_service">kdenlivetitle</property>
  <property name="kdenlive:duration">125</property>
  <property name="kdenlive:clipname">evaluation</property>
  <property name="xmldata">&lt;kdenlivetitle duration="125" LC_NUMERIC="C" width="1920" height="1080" out="124">
 &lt;item type="QGraphicsTextItem" z-index="1">
  &lt;position x="1172" y="481">
   &lt;transform>1,0,0,0,1,0,0,0,1&lt;/transform>
  &lt;/position>
  &lt;content line-spacing="0" shadow="0;#64000000;3;3;3" font-underline="0" box-height="368" font="Ubuntu" letter-spacing="0" font-pixel-size="40" font-italic="0" typewriter="0;2;1;0;0" alignment="1" font-weight="50" box-width="708.016" font-color="255,255,255,255">For evaluation we annotate 50 image
sequences with 10 frames each from
the Cholec80 dataset.

A greater fraction of all laparoscopic
camera motion estimations has a lower
deviation for our method, which uses
a ResNet-34 backbone.&lt;/content>
 &lt;/item>
 &lt;item type="QGraphicsTextItem" z-index="0">
  &lt;position x="261" y="195">
   &lt;transform>1,0,0,0,1,0,0,0,1&lt;/transform>
  &lt;/position>
  &lt;content line-spacing="0" shadow="0;#64000000;3;3;3" font-underline="0" box-height="63" font="Ubuntu" letter-spacing="0" font-pixel-size="55" font-italic="0" typewriter="0;2;1;0;0" alignment="2" font-weight="50" box-width="589.328" font-color="255,255,255,255">Quantitative Evaluation&lt;/content>
 &lt;/item>
 &lt;startviewport rect="0,0,1920,1080"/>
 &lt;endviewport rect="0,0,1920,1080"/>
 &lt;background color="0,0,0,0"/>
&lt;/kdenlivetitle>
</property>
  <property name="kdenlive:folderid">-1</property>
  <property name="kdenlive:id">24</property>
  <property name="kdenlive:file_hash">f800ff24cbe8166638be2770807181fc</property>
  <property name="force_reload">0</property>
  <property name="meta.media.width">1920</property>
  <property name="meta.media.height">1080</property>
 </producer>
 <producer id="producer23" in="00:00:00.000" out="00:00:20.160">
  <property name="length">505</property>
  <property name="eof">pause</property>
  <property name="resource"/>
  <property name="progressive">1</property>
  <property name="aspect_ratio">1</property>
  <property name="seekable">1</property>
  <property name="mlt_service">kdenlivetitle</property>
  <property name="kdenlive:duration">125</property>
  <property name="kdenlive:clipname">qualitative</property>
  <property name="xmldata">&lt;kdenlivetitle duration="125" LC_NUMERIC="C" width="1920" height="1080" out="124">
 &lt;item type="QGraphicsTextItem" z-index="1">
  &lt;position x="291" y="447">
   &lt;transform>1,0,0,0,1,0,0,0,1&lt;/transform>
  &lt;/position>
  &lt;content line-spacing="0" shadow="0;#64000000;3;3;3" font-underline="0" box-height="276" font="Ubuntu" letter-spacing="0" font-pixel-size="40" font-italic="0" typewriter="0;2;1;0;0" alignment="1" font-weight="50" box-width="1184.91" font-color="255,255,255,255">It can be seen that our method successfully isolates laparoscopic 
camera motion from object and tool motion.

Additionally, our method performs well with little texture, and in 
the presence of smoke. Both scenarios occur often in laparosopic 
surgery.&lt;/content>
 &lt;/item>
 &lt;item type="QGraphicsTextItem" z-index="0">
  &lt;position x="261" y="195">
   &lt;transform>1,0,0,0,1,0,0,0,1&lt;/transform>
  &lt;/position>
  &lt;content line-spacing="0" shadow="0;#64000000;3;3;3" font-underline="0" box-height="63" font="Ubuntu" letter-spacing="0" font-pixel-size="55" font-italic="0" typewriter="0;2;1;0;0" alignment="2" font-weight="50" box-width="550.656" font-color="255,255,255,255">Qualitative Evaluation&lt;/content>
 &lt;/item>
 &lt;startviewport rect="0,0,1920,1080"/>
 &lt;endviewport rect="0,0,1920,1080"/>
 &lt;background color="0,0,0,0"/>
&lt;/kdenlivetitle>
</property>
  <property name="kdenlive:folderid">-1</property>
  <property name="kdenlive:id">25</property>
  <property name="kdenlive:file_hash">ca81beef6e3c4405f57073cdeb5781ea</property>
  <property name="force_reload">0</property>
  <property name="meta.media.width">1920</property>
  <property name="meta.media.height">1080</property>
 </producer>
 <playlist id="main_bin">
  <property name="kdenlive:docproperties.activeTrack">4</property>
  <property name="kdenlive:docproperties.audioChannels">2</property>
  <property name="kdenlive:docproperties.audioTarget">-1</property>
  <property name="kdenlive:docproperties.disablepreview">0</property>
  <property name="kdenlive:docproperties.documentid">1629890311687</property>
  <property name="kdenlive:docproperties.enableTimelineZone">0</property>
  <property name="kdenlive:docproperties.enableexternalproxy">0</property>
  <property name="kdenlive:docproperties.enableproxy">0</property>
  <property name="kdenlive:docproperties.externalproxyparams"/>
  <property name="kdenlive:docproperties.generateimageproxy">0</property>
  <property name="kdenlive:docproperties.generateproxy">0</property>
  <property name="kdenlive:docproperties.groups">[
]
</property>
  <property name="kdenlive:docproperties.kdenliveversion">21.08.0</property>
  <property name="kdenlive:docproperties.position">2590</property>
  <property name="kdenlive:docproperties.previewextension"/>
  <property name="kdenlive:docproperties.previewparameters"/>
  <property name="kdenlive:docproperties.profile">atsc_1080p_25</property>
  <property name="kdenlive:docproperties.proxyextension"/>
  <property name="kdenlive:docproperties.proxyimageminsize">2000</property>
  <property name="kdenlive:docproperties.proxyimagesize">800</property>
  <property name="kdenlive:docproperties.proxyminsize">1000</property>
  <property name="kdenlive:docproperties.proxyparams"/>
  <property name="kdenlive:docproperties.proxyresize">640</property>
  <property name="kdenlive:docproperties.scrollPos">3292</property>
  <property name="kdenlive:docproperties.seekOffset">30000</property>
  <property name="kdenlive:docproperties.version">1.01</property>
  <property name="kdenlive:docproperties.verticalzoom">1</property>
  <property name="kdenlive:docproperties.videoTarget">2</property>
  <property name="kdenlive:docproperties.zonein">0</property>
  <property name="kdenlive:docproperties.zoneout">75</property>
  <property name="kdenlive:docproperties.zoom">5</property>
  <property name="kdenlive:expandedFolders"/>
  <property name="kdenlive:documentnotes"/>
  <property name="kdenlive:docproperties.renderaudioquality">192</property>
  <property name="kdenlive:docproperties.rendercategory">Generic (HD for web, mobile devices...)</property>
  <property name="kdenlive:docproperties.renderendguide">-1</property>
  <property name="kdenlive:docproperties.renderexportaudio">0</property>
  <property name="kdenlive:docproperties.renderfield">0</property>
  <property name="kdenlive:docproperties.renderguide">0</property>
  <property name="kdenlive:docproperties.renderplay">0</property>
  <property name="kdenlive:docproperties.renderprofile">MP4-H264/AAC</property>
  <property name="kdenlive:docproperties.renderquality">23</property>
  <property name="kdenlive:docproperties.renderratio">1</property>
  <property name="kdenlive:docproperties.renderrescale">0</property>
  <property name="kdenlive:docproperties.renderrescaleheight">540</property>
  <property name="kdenlive:docproperties.renderrescalewidth">960</property>
  <property name="kdenlive:docproperties.renderscanning">0</property>
  <property name="kdenlive:docproperties.renderspeed">2</property>
  <property name="kdenlive:docproperties.renderstartguide">-1</property>
  <property name="kdenlive:docproperties.rendertcoverlay">0</property>
  <property name="kdenlive:docproperties.rendertctype">0</property>
  <property name="kdenlive:docproperties.rendertwopass">0</property>
  <property name="kdenlive:docproperties.renderurl">/run/user/1000/doc/47a54c0f/blend_plot_submission.mp4</property>
  <property name="kdenlive:docproperties.renderzone">0</property>
  <property name="xml_retain">1</property>
  <entry producer="producer0" in="00:00:00.000" out="00:00:29.360"/>
  <entry producer="producer5" in="00:00:00.000" out="00:00:29.360"/>
  <entry producer="producer2" in="00:00:00.000" out="00:00:04.960"/>
  <entry producer="producer3" in="00:00:00.000" out="00:00:09.320"/>
  <entry producer="producer4" in="00:00:00.000" out="00:00:04.960"/>
  <entry producer="producer1" in="00:00:00.000" out="00:00:06.440"/>
  <entry producer="producer6" in="00:00:00.000" out="00:00:18.160"/>
  <entry producer="producer7" in="00:00:00.000" out="00:00:18.160"/>
  <entry producer="producer8" in="00:00:00.000" out="00:00:10.520"/>
  <entry producer="producer9" in="00:00:00.000" out="00:00:04.960"/>
  <entry producer="producer10" in="00:00:00.000" out="00:00:09.320"/>
  <entry producer="producer11" in="00:00:00.000" out="00:00:18.160"/>
  <entry producer="producer12" in="00:00:00.000" out="00:00:05.720"/>
  <entry producer="producer13" in="00:00:00.000" out="00:00:18.160"/>
  <entry producer="producer14" in="00:00:00.000" out="00:00:06.720"/>
  <entry producer="producer15" in="00:00:00.000" out="00:00:18.160"/>
  <entry producer="producer16" in="00:00:00.000" out="00:00:08.880"/>
  <entry producer="producer17" in="00:00:00.000" out="00:00:18.160"/>
  <entry producer="producer18" in="00:00:00.000" out="00:00:07.800"/>
  <entry producer="producer19" in="00:00:00.000" out="00:00:18.160"/>
  <entry producer="producer20" in="00:00:00.000" out="00:00:12.960"/>
  <entry producer="producer21" in="00:00:00.000" out="00:00:18.160"/>
  <entry producer="producer22" in="00:00:00.000" out="00:00:09.320"/>
  <entry producer="producer23" in="00:00:00.000" out="00:00:20.160"/>
 </playlist>
 <producer id="black_track" in="00:00:00.000" out="00:22:09.680">
  <property name="length">2147483647</property>
  <property name="eof">continue</property>
  <property name="resource">black</property>
  <property name="aspect_ratio">1</property>
  <property name="mlt_service">color</property>
  <property name="mlt_image_format">rgb24a</property>
  <property name="set.test_audio">0</property>
 </producer>
 <playlist id="playlist0">
  <property name="kdenlive:audio_track">1</property>
 </playlist>
 <playlist id="playlist1">
  <property name="kdenlive:audio_track">1</property>
 </playlist>
 <tractor id="tractor0" in="00:00:00.000">
  <property name="kdenlive:audio_track">1</property>
  <property name="kdenlive:trackheight">69</property>
  <property name="kdenlive:timeline_active">1</property>
  <property name="kdenlive:collapsed">0</property>
  <property name="kdenlive:thumbs_format"/>
  <property name="kdenlive:audio_rec"/>
  <track hide="video" producer="playlist0"/>
  <track hide="video" producer="playlist1"/>
  <filter id="filter0">
   <property name="window">75</property>
   <property name="max_gain">20dB</property>
   <property name="mlt_service">volume</property>
   <property name="internal_added">237</property>
   <property name="disable">1</property>
  </filter>
  <filter id="filter1">
   <property name="channel">-1</property>
   <property name="mlt_service">panner</property>
   <property name="internal_added">237</property>
   <property name="start">0.5</property>
   <property name="disable">1</property>
  </filter>
  <filter id="filter2">
   <property name="iec_scale">0</property>
   <property name="mlt_service">audiolevel</property>
   <property name="disable">1</property>
  </filter>
 </tractor>
 <playlist id="playlist2">
  <property name="kdenlive:audio_track">1</property>
 </playlist>
 <playlist id="playlist3">
  <property name="kdenlive:audio_track">1</property>
 </playlist>
 <tractor id="tractor1" in="00:00:00.000">
  <property name="kdenlive:audio_track">1</property>
  <property name="kdenlive:trackheight">69</property>
  <property name="kdenlive:timeline_active">1</property>
  <property name="kdenlive:collapsed">0</property>
  <property name="kdenlive:thumbs_format"/>
  <property name="kdenlive:audio_rec"/>
  <track hide="video" producer="playlist2"/>
  <track hide="video" producer="playlist3"/>
  <filter id="filter3">
   <property name="window">75</property>
   <property name="max_gain">20dB</property>
   <property name="mlt_service">volume</property>
   <property name="internal_added">237</property>
   <property name="disable">1</property>
  </filter>
  <filter id="filter4">
   <property name="channel">-1</property>
   <property name="mlt_service">panner</property>
   <property name="internal_added">237</property>
   <property name="start">0.5</property>
   <property name="disable">1</property>
  </filter>
  <filter id="filter5">
   <property name="iec_scale">0</property>
   <property name="mlt_service">audiolevel</property>
   <property name="disable">1</property>
  </filter>
 </tractor>
 <producer id="producer24" in="00:00:00.000" out="00:00:29.360">
  <property name="length">735</property>
  <property name="eof">pause</property>
  <property name="resource">plot/re_sample_frame_rate_5.mp4</property>
  <property name="audio_index">-1</property>
  <property name="video_index">0</property>
  <property name="mute_on_pause">0</property>
  <property name="mlt_service">avformat-novalidate</property>
  <property name="seekable">1</property>
  <property name="aspect_ratio">1</property>
  <property name="kdenlive:clipname"/>
  <property name="kdenlive:folderid">-1</property>
  <property name="kdenlive:id">3</property>
  <property name="kdenlive:file_size">1232022</property>
  <property name="kdenlive:file_hash">44b90d3832b68b6833ead50a23fee622</property>
  <property name="xml">was here</property>
  <property name="meta.media.nb_streams">1</property>
  <property name="meta.media.0.stream.type">video</property>
  <property name="meta.media.0.stream.frame_rate">25</property>
  <property name="meta.media.0.stream.sample_aspect_ratio">1</property>
  <property name="meta.media.0.codec.width">1920</property>
  <property name="meta.media.0.codec.height">1440</property>
  <property name="meta.media.0.codec.rotate">0</property>
  <property name="meta.media.0.codec.frame_rate">25</property>
  <property name="meta.media.0.codec.pix_fmt">yuv420p</property>
  <property name="meta.media.0.codec.sample_aspect_ratio">1</property>
  <property name="meta.media.0.codec.colorspace">709</property>
  <property name="meta.media.0.codec.name">h264</property>
  <property name="meta.media.0.codec.long_name">H.264 / AVC / MPEG-4 AVC / MPEG-4 part 10</property>
  <property name="meta.media.0.codec.bit_rate">332610</property>
  <property name="meta.attr.0.stream.handler_name.markup">VideoHandler</property>
  <property name="meta.attr.major_brand.markup">isom</property>
  <property name="meta.attr.minor_version.markup">512</property>
  <property name="meta.attr.compatible_brands.markup">isomiso2avc1mp41</property>
  <property name="meta.attr.encoder.markup">Lavf58.29.100</property>
  <property name="meta.media.sample_aspect_num">1</property>
  <property name="meta.media.sample_aspect_den">1</property>
  <property name="meta.media.frame_rate_num">25</property>
  <property name="meta.media.frame_rate_den">1</property>
  <property name="meta.media.colorspace">709</property>
  <property name="meta.media.color_trc">2</property>
  <property name="meta.media.has_b_frames">2</property>
  <property name="meta.media.width">1920</property>
  <property name="meta.media.height">1440</property>
  <property name="meta.media.color_range">mpeg</property>
  <property name="set.test_audio">1</property>
  <property name="set.test_image">0</property>
  <property name="meta.media.top_field_first">0</property>
  <property name="meta.media.progressive">1</property>
 </producer>
 <playlist id="playlist4">
  <blank length="00:00:12.720"/>
  <entry producer="producer24" in="00:00:00.000" out="00:00:05.760">
   <property name="kdenlive:id">3</property>
   <filter id="filter6">
    <property name="rotate_center">1</property>
    <property name="mlt_service">qtblend</property>
    <property name="kdenlive_id">qtblend</property>
    <property name="rect">00:00:00.000=-174 476 1149 602 1.000000</property>
    <property name="rotation">00:00:00.000=0</property>
    <property name="compositing">0</property>
    <property name="distort">0</property>
    <property name="kdenlive:collapsed">0</property>
   </filter>
  </entry>
  <entry producer="producer24" in="00:00:05.800" out="00:00:05.920">
   <property name="kdenlive:id">3</property>
   <filter id="filter7">
    <property name="rotate_center">1</property>
    <property name="mlt_service">qtblend</property>
    <property name="kdenlive_id">qtblend</property>
    <property name="rect">00:00:05.800=-174 476 1149 602 1.000000</property>
    <property name="rotation">00:00:05.800=0</property>
    <property name="compositing">0</property>
    <property name="distort">0</property>
    <property name="kdenlive:collapsed">0</property>
   </filter>
  </entry>
  <entry producer="producer5" in="00:00:05.960" out="00:00:05.960">
   <property name="kdenlive:id">3</property>
   <filter id="filter8">
    <property name="rotate_center">1</property>
    <property name="mlt_service">qtblend</property>
    <property name="kdenlive_id">qtblend</property>
    <property name="rect">00:00:05.960=-174 476 1149 602 1.000000</property>
    <property name="rotation">00:00:05.960=0</property>
    <property name="compositing">0</property>
    <property name="distort">0</property>
    <property name="kdenlive:collapsed">0</property>
   </filter>
  </entry>
  <blank length="00:00:10.360"/>
  <entry producer="producer5" in="00:00:06.000" out="00:00:06.160">
   <property name="kdenlive:id">3</property>
   <filter id="filter9">
    <property name="rotate_center">1</property>
    <property name="mlt_service">qtblend</property>
    <property name="kdenlive_id">qtblend</property>
    <property name="rect">00:00:06.000=-174 476 1149 602 1.000000</property>
    <property name="rotation">00:00:06.000=0</property>
    <property name="compositing">0</property>
    <property name="distort">0</property>
    <property name="kdenlive:collapsed">0</property>
   </filter>
  </entry>
  <entry producer="producer5" in="00:00:06.200" out="00:00:07.760">
   <property name="kdenlive:id">3</property>
   <filter id="filter10">
    <property name="rotate_center">1</property>
    <property name="mlt_service">qtblend</property>
    <property name="kdenlive_id">qtblend</property>
    <property name="rect">00:00:06.200=-174 476 1149 602 1.000000</property>
    <property name="rotation">00:00:06.200=0</property>
    <property name="compositing">0</property>
    <property name="distort">0</property>
   </filter>
  </entry>
  <entry producer="producer5" in="00:00:07.800" out="00:00:07.960">
   <property name="kdenlive:id">3</property>
   <filter id="filter11">
    <property name="rotate_center">1</property>
    <property name="mlt_service">qtblend</property>
    <property name="kdenlive_id">qtblend</property>
    <property name="rect">00:00:07.800=-174 476 1149 602 1.000000</property>
    <property name="rotation">00:00:07.800=0</property>
    <property name="compositing">0</property>
    <property name="distort">0</property>
   </filter>
  </entry>
  <blank length="00:00:09.160"/>
  <entry producer="producer5" in="00:00:08.000" out="00:00:13.160">
   <property name="kdenlive:id">3</property>
   <filter id="filter12">
    <property name="rotate_center">1</property>
    <property name="mlt_service">qtblend</property>
    <property name="kdenlive_id">qtblend</property>
    <property name="rect">00:00:08.000=-174 476 1149 602 1.000000</property>
    <property name="rotation">00:00:08.000=0</property>
    <property name="compositing">0</property>
    <property name="distort">0</property>
   </filter>
  </entry>
  <entry producer="producer5" in="00:00:13.200" out="00:00:13.360">
   <property name="kdenlive:id">3</property>
   <filter id="filter13">
    <property name="rotate_center">1</property>
    <property name="mlt_service">qtblend</property>
    <property name="kdenlive_id">qtblend</property>
    <property name="rect">00:00:13.200=-174 476 1149 602 1.000000</property>
    <property name="rotation">00:00:13.200=0</property>
    <property name="compositing">0</property>
    <property name="distort">0</property>
   </filter>
  </entry>
  <blank length="00:00:05.560"/>
  <entry producer="producer5" in="00:00:13.400" out="00:00:20.360">
   <property name="kdenlive:id">3</property>
   <filter id="filter14">
    <property name="rotate_center">1</property>
    <property name="mlt_service">qtblend</property>
    <property name="kdenlive_id">qtblend</property>
    <property name="rect">00:00:13.400=-174 476 1149 602 1.000000</property>
    <property name="rotation">00:00:13.400=0</property>
    <property name="compositing">0</property>
    <property name="distort">0</property>
    <property name="kdenlive:collapsed">0</property>
   </filter>
  </entry>
  <entry producer="producer5" in="00:00:20.400" out="00:00:20.560">
   <property name="kdenlive:id">3</property>
   <filter id="filter15">
    <property name="rotate_center">1</property>
    <property name="mlt_service">qtblend</property>
    <property name="kdenlive_id">qtblend</property>
    <property name="rect">00:00:20.400=-174 476 1149 602 1.000000</property>
    <property name="rotation">00:00:20.400=0</property>
    <property name="compositing">0</property>
    <property name="distort">0</property>
   </filter>
  </entry>
  <blank length="00:00:06.560"/>
  <entry producer="producer5" in="00:00:20.600" out="00:00:21.560">
   <property name="kdenlive:id">3</property>
   <filter id="filter16">
    <property name="rotate_center">1</property>
    <property name="mlt_service">qtblend</property>
    <property name="kdenlive_id">qtblend</property>
    <property name="rect">00:00:20.600=-174 476 1149 602 1.000000</property>
    <property name="rotation">00:00:20.600=0</property>
    <property name="compositing">0</property>
    <property name="distort">0</property>
    <property name="kdenlive:collapsed">0</property>
   </filter>
  </entry>
  <entry producer="producer5" in="00:00:21.600" out="00:00:21.760">
   <property name="kdenlive:id">3</property>
   <filter id="filter17">
    <property name="rotate_center">1</property>
    <property name="mlt_service">qtblend</property>
    <property name="kdenlive_id">qtblend</property>
    <property name="rect">00:00:21.600=-174 476 1149 602 1.000000</property>
    <property name="rotation">00:00:21.600=0</property>
    <property name="compositing">0</property>
    <property name="distort">0</property>
    <property name="kdenlive:collapsed">0</property>
   </filter>
  </entry>
  <blank length="00:00:08.000"/>
  <entry producer="producer5" in="00:00:21.800" out="00:00:21.960">
   <property name="kdenlive:id">3</property>
   <filter id="filter18">
    <property name="rotate_center">1</property>
    <property name="mlt_service">qtblend</property>
    <property name="kdenlive_id">qtblend</property>
    <property name="rect">00:00:21.800=-174 476 1149 602 1.000000</property>
    <property name="rotation">00:00:21.800=0</property>
    <property name="compositing">0</property>
    <property name="distort">0</property>
    <property name="kdenlive:collapsed">0</property>
   </filter>
  </entry>
  <blank length="00:00:07.640"/>
  <entry producer="producer5" in="00:00:22.000" out="00:00:28.760">
   <property name="kdenlive:id">3</property>
   <filter id="filter19">
    <property name="rotate_center">1</property>
    <property name="mlt_service">qtblend</property>
    <property name="kdenlive_id">qtblend</property>
    <property name="rect">00:00:22.000=-174 476 1149 602 1.000000</property>
    <property name="rotation">00:00:22.000=0</property>
    <property name="compositing">0</property>
    <property name="distort">0</property>
    <property name="kdenlive:collapsed">0</property>
   </filter>
  </entry>
  <entry producer="producer5" in="00:00:28.800" out="00:00:28.960">
   <property name="kdenlive:id">3</property>
   <filter id="filter20">
    <property name="rotate_center">1</property>
    <property name="mlt_service">qtblend</property>
    <property name="kdenlive_id">qtblend</property>
    <property name="rect">00:00:28.800=-174 476 1149 602 1.000000</property>
    <property name="rotation">00:00:28.800=0</property>
    <property name="compositing">0</property>
    <property name="distort">0</property>
   </filter>
  </entry>
  <blank length="00:00:05.520"/>
  <entry producer="producer5" in="00:00:29.000" out="00:00:29.360">
   <property name="kdenlive:id">3</property>
   <filter id="filter21">
    <property name="rotate_center">1</property>
    <property name="mlt_service">qtblend</property>
    <property name="kdenlive_id">qtblend</property>
    <property name="rect">00:00:29.000=-174 476 1149 602 1.000000</property>
    <property name="rotation">00:00:29.000=0</property>
    <property name="compositing">0</property>
    <property name="distort">0</property>
    <property name="kdenlive:collapsed">0</property>
   </filter>
  </entry>
 </playlist>
 <playlist id="playlist5"/>
 <tractor id="tractor2" in="00:00:00.000" out="00:01:34.880">
  <property name="kdenlive:trackheight">69</property>
  <property name="kdenlive:timeline_active">1</property>
  <property name="kdenlive:collapsed">0</property>
  <property name="kdenlive:thumbs_format"/>
  <property name="kdenlive:audio_rec"/>
  <track hide="audio" producer="playlist4"/>
  <track hide="audio" producer="playlist5"/>
 </tractor>
 <producer id="producer25" in="00:00:00.000" out="00:00:29.360">
  <property name="length">735</property>
  <property name="eof">pause</property>
  <property name="resource">img/re_sample_frame_rate_5.mp4</property>
  <property name="audio_index">-1</property>
  <property name="video_index">0</property>
  <property name="mute_on_pause">0</property>
  <property name="mlt_service">avformat-novalidate</property>
  <property name="seekable">1</property>
  <property name="aspect_ratio">1</property>
  <property name="kdenlive:clipname"/>
  <property name="kdenlive:folderid">-1</property>
  <property name="kdenlive:id">2</property>
  <property name="kdenlive:file_size">2371236</property>
  <property name="kdenlive:file_hash">37c6edc7351273a7d4e81a2ec1cdd046</property>
  <property name="xml">was here</property>
  <property name="meta.media.nb_streams">1</property>
  <property name="meta.media.0.stream.type">video</property>
  <property name="meta.media.0.stream.frame_rate">25</property>
  <property name="meta.media.0.stream.sample_aspect_ratio">1</property>
  <property name="meta.media.0.codec.width">960</property>
  <property name="meta.media.0.codec.height">240</property>
  <property name="meta.media.0.codec.rotate">0</property>
  <property name="meta.media.0.codec.frame_rate">25</property>
  <property name="meta.media.0.codec.pix_fmt">yuv420p</property>
  <property name="meta.media.0.codec.sample_aspect_ratio">1</property>
  <property name="meta.media.0.codec.colorspace">601</property>
  <property name="meta.media.0.codec.name">h264</property>
  <property name="meta.media.0.codec.long_name">H.264 / AVC / MPEG-4 AVC / MPEG-4 part 10</property>
  <property name="meta.media.0.codec.bit_rate">642592</property>
  <property name="meta.attr.0.stream.handler_name.markup">VideoHandler</property>
  <property name="meta.attr.major_brand.markup">isom</property>
  <property name="meta.attr.minor_version.markup">512</property>
  <property name="meta.attr.compatible_brands.markup">isomiso2avc1mp41</property>
  <property name="meta.attr.encoder.markup">Lavf58.29.100</property>
  <property name="meta.media.sample_aspect_num">1</property>
  <property name="meta.media.sample_aspect_den">1</property>
  <property name="meta.media.frame_rate_num">25</property>
  <property name="meta.media.frame_rate_den">1</property>
  <property name="meta.media.colorspace">601</property>
  <property name="meta.media.color_trc">2</property>
  <property name="meta.media.has_b_frames">2</property>
  <property name="meta.media.width">960</property>
  <property name="meta.media.height">240</property>
  <property name="meta.media.color_range">mpeg</property>
  <property name="meta.media.top_field_first">0</property>
  <property name="meta.media.progressive">1</property>
  <property name="set.test_audio">1</property>
  <property name="set.test_image">0</property>
 </producer>
 <playlist id="playlist6">
  <blank length="00:00:12.720"/>
  <entry producer="producer25" in="00:00:00.000" out="00:00:05.760">
   <property name="kdenlive:id">2</property>
   <filter id="filter22">
    <property name="rotate_center">1</property>
    <property name="mlt_service">qtblend</property>
    <property name="kdenlive_id">qtblend</property>
    <property name="rect">00:00:00.000=0 -301 1920 1080 1.000000</property>
    <property name="rotation">00:00:00.000=0</property>
    <property name="compositing">0</property>
    <property name="distort">0</property>
    <property name="kdenlive:collapsed">0</property>
   </filter>
  </entry>
  <entry producer="producer25" in="00:00:05.800" out="00:00:05.920">
   <property name="kdenlive:id">2</property>
   <filter id="filter23">
    <property name="rotate_center">1</property>
    <property name="mlt_service">qtblend</property>
    <property name="kdenlive_id">qtblend</property>
    <property name="rect">00:00:05.800=0 -301 1920 1080 1.000000</property>
    <property name="rotation">00:00:05.800=0</property>
    <property name="compositing">0</property>
    <property name="distort">0</property>
    <property name="kdenlive:collapsed">0</property>
   </filter>
  </entry>
  <entry producer="producer25" in="00:00:05.960" out="00:00:05.960">
   <property name="kdenlive:id">2</property>
   <filter id="filter24">
    <property name="rotate_center">1</property>
    <property name="mlt_service">qtblend</property>
    <property name="kdenlive_id">qtblend</property>
    <property name="rect">00:00:05.960=0 -301 1920 1080 1.000000</property>
    <property name="rotation">00:00:05.960=0</property>
    <property name="compositing">0</property>
    <property name="distort">0</property>
    <property name="kdenlive:collapsed">0</property>
   </filter>
  </entry>
  <blank length="00:00:10.360"/>
  <entry producer="producer25" in="00:00:06.000" out="00:00:06.160">
   <property name="kdenlive:id">2</property>
   <filter id="filter25">
    <property name="rotate_center">1</property>
    <property name="mlt_service">qtblend</property>
    <property name="kdenlive_id">qtblend</property>
    <property name="rect">00:00:06.000=0 -301 1920 1080 1.000000</property>
    <property name="rotation">00:00:06.000=0</property>
    <property name="compositing">0</property>
    <property name="distort">0</property>
    <property name="kdenlive:collapsed">0</property>
   </filter>
  </entry>
  <entry producer="producer25" in="00:00:06.200" out="00:00:07.760">
   <property name="kdenlive:id">2</property>
   <filter id="filter26">
    <property name="rotate_center">1</property>
    <property name="mlt_service">qtblend</property>
    <property name="kdenlive_id">qtblend</property>
    <property name="rect">00:00:06.200=0 -301 1920 1080 1.000000</property>
    <property name="rotation">00:00:06.200=0</property>
    <property name="compositing">0</property>
    <property name="distort">0</property>
   </filter>
  </entry>
  <entry producer="producer25" in="00:00:07.800" out="00:00:07.960">
   <property name="kdenlive:id">2</property>
   <filter id="filter27">
    <property name="rotate_center">1</property>
    <property name="mlt_service">qtblend</property>
    <property name="kdenlive_id">qtblend</property>
    <property name="rect">00:00:07.800=0 -301 1920 1080 1.000000</property>
    <property name="rotation">00:00:07.800=0</property>
    <property name="compositing">0</property>
    <property name="distort">0</property>
   </filter>
  </entry>
  <blank length="00:00:09.160"/>
  <entry producer="producer25" in="00:00:08.000" out="00:00:13.160">
   <property name="kdenlive:id">2</property>
   <filter id="filter28">
    <property name="rotate_center">1</property>
    <property name="mlt_service">qtblend</property>
    <property name="kdenlive_id">qtblend</property>
    <property name="rect">00:00:08.000=0 -301 1920 1080 1.000000</property>
    <property name="rotation">00:00:08.000=0</property>
    <property name="compositing">0</property>
    <property name="distort">0</property>
    <property name="kdenlive:collapsed">0</property>
   </filter>
  </entry>
  <entry producer="producer25" in="00:00:13.200" out="00:00:13.360">
   <property name="kdenlive:id">2</property>
   <filter id="filter29">
    <property name="rotate_center">1</property>
    <property name="mlt_service">qtblend</property>
    <property name="kdenlive_id">qtblend</property>
    <property name="rect">00:00:13.200=0 -301 1920 1080 1.000000</property>
    <property name="rotation">00:00:13.200=0</property>
    <property name="compositing">0</property>
    <property name="distort">0</property>
    <property name="kdenlive:collapsed">0</property>
   </filter>
  </entry>
  <blank length="00:00:05.560"/>
  <entry producer="producer25" in="00:00:13.400" out="00:00:20.360">
   <property name="kdenlive:id">2</property>
   <filter id="filter30">
    <property name="rotate_center">1</property>
    <property name="mlt_service">qtblend</property>
    <property name="kdenlive_id">qtblend</property>
    <property name="rect">00:00:13.400=0 -301 1920 1080 1.000000</property>
    <property name="rotation">00:00:13.400=0</property>
    <property name="compositing">0</property>
    <property name="distort">0</property>
    <property name="kdenlive:collapsed">0</property>
   </filter>
  </entry>
  <entry producer="producer25" in="00:00:20.400" out="00:00:20.560">
   <property name="kdenlive:id">2</property>
   <filter id="filter31">
    <property name="rotate_center">1</property>
    <property name="mlt_service">qtblend</property>
    <property name="kdenlive_id">qtblend</property>
    <property name="rect">00:00:20.400=0 -301 1920 1080 1.000000</property>
    <property name="rotation">00:00:20.400=0</property>
    <property name="compositing">0</property>
    <property name="distort">0</property>
   </filter>
  </entry>
  <blank length="00:00:06.560"/>
  <entry producer="producer25" in="00:00:20.600" out="00:00:21.560">
   <property name="kdenlive:id">2</property>
   <filter id="filter32">
    <property name="rotate_center">1</property>
    <property name="mlt_service">qtblend</property>
    <property name="kdenlive_id">qtblend</property>
    <property name="rect">00:00:20.600=0 -301 1920 1080 1.000000</property>
    <property name="rotation">00:00:20.600=0</property>
    <property name="compositing">0</property>
    <property name="distort">0</property>
    <property name="kdenlive:collapsed">0</property>
   </filter>
  </entry>
  <entry producer="producer25" in="00:00:21.600" out="00:00:21.760">
   <property name="kdenlive:id">2</property>
   <filter id="filter33">
    <property name="rotate_center">1</property>
    <property name="mlt_service">qtblend</property>
    <property name="kdenlive_id">qtblend</property>
    <property name="rect">00:00:21.600=0 -301 1920 1080 1.000000</property>
    <property name="rotation">00:00:21.600=0</property>
    <property name="compositing">0</property>
    <property name="distort">0</property>
    <property name="kdenlive:collapsed">0</property>
   </filter>
  </entry>
  <blank length="00:00:08.000"/>
  <entry producer="producer25" in="00:00:21.800" out="00:00:21.960">
   <property name="kdenlive:id">2</property>
   <filter id="filter34">
    <property name="rotate_center">1</property>
    <property name="mlt_service">qtblend</property>
    <property name="kdenlive_id">qtblend</property>
    <property name="rect">00:00:21.800=0 -301 1920 1080 1.000000</property>
    <property name="rotation">00:00:21.800=0</property>
    <property name="compositing">0</property>
    <property name="distort">0</property>
    <property name="kdenlive:collapsed">0</property>
   </filter>
  </entry>
  <blank length="00:00:07.640"/>
  <entry producer="producer25" in="00:00:22.000" out="00:00:28.760">
   <property name="kdenlive:id">2</property>
   <filter id="filter35">
    <property name="rotate_center">1</property>
    <property name="mlt_service">qtblend</property>
    <property name="kdenlive_id">qtblend</property>
    <property name="rect">00:00:22.000=0 -301 1920 1080 1.000000</property>
    <property name="rotation">00:00:22.000=0</property>
    <property name="compositing">0</property>
    <property name="distort">0</property>
    <property name="kdenlive:collapsed">0</property>
   </filter>
  </entry>
  <entry producer="producer25" in="00:00:28.800" out="00:00:28.960">
   <property name="kdenlive:id">2</property>
   <filter id="filter36">
    <property name="rotate_center">1</property>
    <property name="mlt_service">qtblend</property>
    <property name="kdenlive_id">qtblend</property>
    <property name="rect">00:00:28.800=0 -301 1920 1080 1.000000</property>
    <property name="rotation">00:00:28.800=0</property>
    <property name="compositing">0</property>
    <property name="distort">0</property>
    <property name="kdenlive:collapsed">0</property>
   </filter>
  </entry>
  <blank length="00:00:05.520"/>
  <entry producer="producer25" in="00:00:29.000" out="00:00:29.360">
   <property name="kdenlive:id">2</property>
   <filter id="filter37">
    <property name="rotate_center">1</property>
    <property name="mlt_service">qtblend</property>
    <property name="kdenlive_id">qtblend</property>
    <property name="rect">00:00:29.000=0 -301 1920 1080 1.000000</property>
    <property name="rotation">00:00:29.000=0</property>
    <property name="compositing">0</property>
    <property name="distort">0</property>
    <property name="kdenlive:collapsed">0</property>
   </filter>
  </entry>
 </playlist>
 <playlist id="playlist7"/>
 <tractor id="tractor3" in="00:00:00.000" out="00:01:34.880">
  <property name="kdenlive:trackheight">69</property>
  <property name="kdenlive:timeline_active">0</property>
  <property name="kdenlive:collapsed">0</property>
  <property name="kdenlive:thumbs_format"/>
  <property name="kdenlive:audio_rec"/>
  <track hide="audio" producer="playlist6"/>
  <track hide="audio" producer="playlist7"/>
 </tractor>
 <playlist id="playlist8">
  <blank length="00:00:18.720"/>
  <entry producer="producer8" in="00:00:00.000" out="00:00:10.520">
   <property name="kdenlive:id">10</property>
  </entry>
  <blank length="00:00:01.600"/>
  <entry producer="producer10" in="00:00:00.000" out="00:00:09.320">
   <property name="kdenlive:id">12</property>
  </entry>
  <blank length="00:00:05.200"/>
  <entry producer="producer12" in="00:00:00.000" out="00:00:05.720">
   <property name="kdenlive:id">14</property>
  </entry>
  <blank length="00:00:07.000"/>
  <entry producer="producer14" in="00:00:00.000" out="00:00:06.720">
   <property name="kdenlive:id">16</property>
  </entry>
  <blank length="00:00:01.000"/>
  <entry producer="producer16" in="00:00:00.000" out="00:00:08.160">
   <property name="kdenlive:id">18</property>
  </entry>
  <entry producer="producer18" in="00:00:00.000" out="00:00:07.800">
   <property name="kdenlive:id">20</property>
  </entry>
  <blank length="00:00:06.800"/>
  <entry producer="producer20" in="00:00:00.000" out="00:00:05.680">
   <property name="kdenlive:id">22</property>
  </entry>
  <blank length="00:00:14.960"/>
  <entry producer="producer4" in="00:00:00.000" out="00:00:20.160">
   <property name="kdenlive:id">6</property>
   <filter id="filter38">
    <property name="rotate_center">1</property>
    <property name="mlt_service">qtblend</property>
    <property name="kdenlive_id">qtblend</property>
    <property name="rect">00:00:00.000=58 324 1152 648 1.000000</property>
    <property name="rotation">00:00:00.000=0</property>
    <property name="compositing">0</property>
    <property name="distort">0</property>
    <property name="kdenlive:collapsed">0</property>
    <property name="disable">0</property>
   </filter>
  </entry>
 </playlist>
 <playlist id="playlist9"/>
 <tractor id="tractor4" in="00:00:00.000" out="00:02:09.640">
  <property name="kdenlive:trackheight">69</property>
  <property name="kdenlive:timeline_active">1</property>
  <property name="kdenlive:collapsed">0</property>
  <property name="kdenlive:thumbs_format"/>
  <property name="kdenlive:audio_rec"/>
  <track hide="audio" producer="playlist8"/>
  <track hide="audio" producer="playlist9"/>
 </tractor>
 <playlist id="playlist10">
  <entry producer="producer2" in="00:00:00.000" out="00:00:04.960">
   <property name="kdenlive:id">4</property>
  </entry>
  <entry producer="producer3" in="00:00:00.000" out="00:00:07.680">
   <property name="kdenlive:id">5</property>
  </entry>
  <entry producer="producer6" in="00:00:00.000" out="00:00:05.960">
   <property name="kdenlive:id">8</property>
  </entry>
  <entry producer="producer7" in="00:00:00.000" out="00:00:10.520">
   <property name="kdenlive:id">9</property>
  </entry>
  <entry producer="producer6" in="00:00:00.000" out="00:00:01.560">
   <property name="kdenlive:id">8</property>
  </entry>
  <entry producer="producer11" in="00:00:00.000" out="00:00:09.320">
   <property name="kdenlive:id">13</property>
  </entry>
  <entry producer="producer6" in="00:00:00.000" out="00:00:05.160">
   <property name="kdenlive:id">8</property>
  </entry>
  <entry producer="producer13" in="00:00:00.000" out="00:00:05.720">
   <property name="kdenlive:id">15</property>
  </entry>
  <entry producer="producer6" in="00:00:00.000" out="00:00:06.960">
   <property name="kdenlive:id">8</property>
  </entry>
  <entry producer="producer15" in="00:00:00.000" out="00:00:06.720">
   <property name="kdenlive:id">17</property>
  </entry>
  <entry producer="producer6" in="00:00:00.000" out="00:00:00.960">
   <property name="kdenlive:id">8</property>
  </entry>
  <entry producer="producer17" in="00:00:00.000" out="00:00:08.160">
   <property name="kdenlive:id">19</property>
  </entry>
  <entry producer="producer19" in="00:00:00.000" out="00:00:07.800">
   <property name="kdenlive:id">21</property>
  </entry>
  <entry producer="producer6" in="00:00:00.000" out="00:00:06.760">
   <property name="kdenlive:id">8</property>
  </entry>
  <entry producer="producer21" in="00:00:00.000" out="00:00:05.680">
   <property name="kdenlive:id">23</property>
  </entry>
  <entry producer="producer6" in="00:00:00.000" out="00:00:00.360">
   <property name="kdenlive:id">8</property>
  </entry>
  <entry producer="producer23" in="00:00:00.000" out="00:00:14.520">
   <property name="kdenlive:id">25</property>
  </entry>
  <entry producer="producer22" in="00:00:00.000" out="00:00:20.160">
   <property name="kdenlive:id">24</property>
  </entry>
 </playlist>
 <playlist id="playlist11"/>
 <tractor id="tractor5" in="00:00:00.000" out="00:02:09.640">
  <property name="kdenlive:trackheight">69</property>
  <property name="kdenlive:timeline_active">1</property>
  <property name="kdenlive:collapsed">0</property>
  <property name="kdenlive:thumbs_format"/>
  <property name="kdenlive:audio_rec"/>
  <track hide="audio" producer="playlist10"/>
  <track hide="audio" producer="playlist11"/>
 </tractor>
 <tractor id="tractor6" in="00:00:00.000" out="00:22:09.680">
  <track producer="black_track"/>
  <track producer="tractor0"/>
  <track producer="tractor1"/>
  <track producer="tractor2"/>
  <track producer="tractor3"/>
  <track producer="tractor4"/>
  <track producer="tractor5"/>
  <transition id="transition0">
   <property name="a_track">0</property>
   <property name="b_track">1</property>
   <property name="mlt_service">mix</property>
   <property name="kdenlive_id">mix</property>
   <property name="internal_added">237</property>
   <property name="always_active">1</property>
   <property name="accepts_blanks">1</property>
   <property name="sum">1</property>
  </transition>
  <transition id="transition1">
   <property name="a_track">0</property>
   <property name="b_track">2</property>
   <property name="mlt_service">mix</property>
   <property name="kdenlive_id">mix</property>
   <property name="internal_added">237</property>
   <property name="always_active">1</property>
   <property name="accepts_blanks">1</property>
   <property name="sum">1</property>
  </transition>
  <transition id="transition2">
   <property name="a_track">0</property>
   <property name="b_track">3</property>
   <property name="compositing">0</property>
   <property name="distort">0</property>
   <property name="rotate_center">0</property>
   <property name="mlt_service">qtblend</property>
   <property name="kdenlive_id">qtblend</property>
   <property name="internal_added">237</property>
   <property name="always_active">1</property>
  </transition>
  <transition id="transition3">
   <property name="a_track">0</property>
   <property name="b_track">4</property>
   <property name="compositing">0</property>
   <property name="distort">0</property>
   <property name="rotate_center">0</property>
   <property name="mlt_service">qtblend</property>
   <property name="kdenlive_id">qtblend</property>
   <property name="internal_added">237</property>
   <property name="always_active">1</property>
  </transition>
  <transition id="transition4">
   <property name="a_track">0</property>
   <property name="b_track">5</property>
   <property name="compositing">0</property>
   <property name="distort">0</property>
   <property name="rotate_center">0</property>
   <property name="mlt_service">qtblend</property>
   <property name="kdenlive_id">qtblend</property>
   <property name="internal_added">237</property>
   <property name="always_active">1</property>
  </transition>
  <transition id="transition5">
   <property name="a_track">0</property>
   <property name="b_track">6</property>
   <property name="compositing">0</property>
   <property name="distort">0</property>
   <property name="rotate_center">0</property>
   <property name="mlt_service">qtblend</property>
   <property name="kdenlive_id">qtblend</property>
   <property name="internal_added">237</property>
   <property name="always_active">1</property>
  </transition>
  <filter id="filter39">
   <property name="window">75</property>
   <property name="max_gain">20dB</property>
   <property name="mlt_service">volume</property>
   <property name="internal_added">237</property>
   <property name="disable">1</property>
  </filter>
  <filter id="filter40">
   <property name="channel">-1</property>
   <property name="mlt_service">panner</property>
   <property name="internal_added">237</property>
   <property name="start">0.5</property>
   <property name="disable">1</property>
  </filter>
  <filter id="filter41">
   <property name="iec_scale">0</property>
   <property name="mlt_service">audiolevel</property>
   <property name="disable">1</property>
  </filter>
 </tractor>
</mlt>
